<?xml version="1.0" encoding="UTF-8"?>
<svg id="Laag_2" xmlns="http://www.w3.org/2000/svg" viewBox="0 0 148.71 244.37">
  <defs>
    <style>
      .cls-1 {
        stroke: #000;
        stroke-miterlimit: 10;
        stroke-width: 2.39px;
      }
    </style>
  </defs>
  <g id="Laag_1-2" data-name="Laag_1">
    <g>
      <path d="M111.33,131.43c-.01-4.62-1.5-6.46-5.81-6.43-3.15,1.37-7.88,3.13-13.84,4.2-5.59,1-9.51.89-14,1-5.52.13-13.36.63-23.06,2.28-7.07.95-14.07,2.98-21.33,1.26-1.08-.26-2.89.55-3.7,1.46-5.27,5.92.99,12.25-.42,18.47-.54,2.37,1.99,4.81,4.19,4.63,5.83-.48,5.18,2.98,5.46,6.86.97,13.84-3.56,27.57-.47,41.49.9,4.04,1.89,5.18,6.29,5.09,16.54-.33,32.66-3.79,48.98-5.64,6.65-.76,8.83-3.64,9.37-10.06.92-11.02-2.48-21.7-1.67-32.69.32-4.38,1.29-7.47,5.94-8.45,6.52-1.37,7.46-5.73,6.19-11.42-.89-3.99-2.1-8.03-2.12-12.05ZM92.53,200.24c-14.11,1.05-28.04,3.33-41.84,5.85-6.95.98-7.69-1.59-6.78-8.14,1.54-11.14,1.55-22.52,1.66-33.8.04-4.64,1.49-6.9,6.1-6.99,9.65-.19,19.3-.32,28.94-.59,3.8-.11,7.6-.45,11.39-.83,3.82-.39,4.64,1.88,3.61,4.65-3.1,8.32.73,16.29,1.07,24.41.14,3.38.45,6.86.49,10.28.03,2.9-1.91,4.96-4.63,5.16ZM99.44,150.03c-7.61.5-15.28.14-25.63.14-9.06-.42-20.81-.03-32.46,1.5-4.98.65-5.32-2.35-6.21-5.75-1.25-4.8,2.9-3.8,4.93-4.65,4.92-2.07,10.42-1.41,15.53-1.88,14.55-1.35,28.84-3.66,42.98-7.19,3.21-.8,5.92-.22,6.3,3.92.19,2.04.11,4.3.98,6.05,3.76,7.56-2.26,7.6-6.42,7.87Z"/>
      <path d="M20.68,230.81c-.18,3.1-.65,5.75.6,8.51.72,1.59,1.88,4.23-1.44,4.94-2.7.58-2.76-1.35-3.86-3.28-2.78-4.9,1.1-9.63-.73-14.62-.98-2.67,3.44-4.65,6.2-5.39,4.79-1.29,9.79-1.75,14.65-2.78,2.04-.43,2.18.87,2.83,2.08,1.3,2.41-1.41,2.29-1.95,2.44-4.28,1.22-8.66,2.1-13.82,3.27,9.24,7.78,19.61,7.67,29.72,7.49,23.07-.4,44.39-9.12,66.29-14.97,3.95-1.06,7.74-3.99,10.8-6.9,6.98-6.63,3.83-16.28-5.92-18.75-2.24-.57-5.21-.31-4.16-3.71.91-2.93,3.17-1.08,5.12-.67,6.82,1.41,12.02,4.91,13.67,11.79,1.44,6.01-4.59,15.43-11.68,19.12-10.53,5.48-22.35,7.22-33.39,11.26-13.12,4.81-26.86,6.65-40.65,8.15-11.64,1.27-21.87-3.43-32.28-7.96Z"/>
      <g id="_x34_6iEbA.tif">
        <path class="cls-1" d="M147.18,19.26c-.81-.77-1.83-.42-2.7.22-5.99,4.43-13.23,4.75-20.14,5.44-7.84.78-14.01,3.62-17.68,10.67-3.01,5.78-5.86,11.68-6.86,18.26-.58,3.76-2.53,6.74-5.31,9.34-9.21,8.63-15.27,19.27-19.55,31.19-.17-1.06-.42-2.02-.45-2.98-.11-4.66-.09-9.33-.23-14-.21-6.89,2.64-11.55,9.21-14.2,2.92-1.18,5.81-2.85,7.7-5.77,5.24-8.08,7.15-17.1,7.46-26.51.15-4.46-.45-8.92-2.95-12.84-3.37-5.3-8.21-9.61-10.46-15.69-.26-.71-1.34-1.31-2.24-1.19-.92.12-.85,1.09-1.11,1.84-.87,2.51-1.98,4.94-2.95,7.41-2.5,6.38-7.01,11.49-10.79,17.05-2.97,4.36-5.17,9.02-5.22,14.24-.06,5.82,1.56,11.2,7.05,14.47,2.78,1.66,3.97,3.74,3.04,7.12-1.26,4.58-1.17,9.33-1.04,14.07.07,2.68.47,5.44-.56,8.4-3.44-4.86-8.22-7.47-13.04-10.08-3.25-1.77-6.7-3.33-8-7.45-1.09-3.46-2.29-6.88-3.17-10.41-.83-3.32-2.56-6.14-5.39-8.28-3.3-2.49-7.13-2.78-11-3.11-5.75-.48-11.42-1-16.4-4.55-3.32-2.36-6.6-4.73-9.7-7.36-.78-.66-1.55-1.83-2.8-1.03-1.52.97-.12,1.91.25,2.76,2.99,6.85,4.7,14.04,5.57,21.43.98,8.32,5.72,13.25,13.87,15.1,6,1.36,11.38-.36,16.81-2.31,3.26-1.17,6.22-1.31,9.28.94,1.29.95,2.01,2.38,3.49,3.1,4.97,2.41,9.98,4.85,14.28,8.34,3.92,3.18,7.08,7,6.59,12.63-.2,2.27-.24,4.55-.26,6.83-.04,4.39-.01,8.77-.01,13.51-.61-.45-.93-.56-1.03-.77-2.62-5.3-6.89-9.35-11.18-13.06-3.28-2.84-5.35-6.19-7.48-9.71-2.45-4.04-4.85-7.86-9.62-10.05-7.11-3.26-13.96-2.29-20.87-.2-4.09,1.24-7.26,4-9.64,7.62-1.07,1.64-.79,2.35,1.22,2.28,1.18-.04,2.44-.42,3.48.38,3.66,2.82,7.75,5.05,10.28,9.26,3.04,5.06,7.78,7.57,13.77,6.99,3.07-.3,5.79-1.99,8.7-2.92,2.7-.86,5.45-2.74,8.42-1.1,2.33,1.29,4.49,2.92,6.13,5.07,2.39,3.13,5.53,5.94,6.19,9.98.53,3.28.12,6.71.39,10.05.03.4.02.72-.02,1,.77,0,1.53.02,2.3.03-.29-.7-.13-1.69.54-2.97.47-.9.76-1.64.52-2.76-.99-4.56,2.6-10.92,6.94-12.75,5.12-2.17,10.52-2.83,15.99-2.94,7.94-.16,15.71-6.41,16.39-14.11.54-6.13,2.63-11.6,5.25-16.99.35-.72.92-1.34-.03-2.05-.87-.65-1.51-.18-2.12.35-2.87,2.49-6.32,2.96-9.96,3.21-7.98.55-15.4,2.3-19.27,10.55-1.53,3.26-2.82,6.59-3.25,10.15-.17,1.43-.73,2.53-1.68,3.34-2.7,2.29-4.33,5.39-6.38,8.16-.36.48-.49,1.39-1.17,1.2-1.87-5.31.66-10.04,1.79-14.79,2.56-10.76,8.1-20.17,15.1-28.69,2.23-2.71,4.95-4.56,8.62-5.34,5.76-1.22,11.63-1.28,17.38-2.31,6.94-1.25,14.2-2.33,18.66-8.62,4.6-6.49,7.01-14.01,7.91-21.87.4-3.52,1.35-6.77,2.64-9.98.31-.78,1.36-1.46.5-2.28ZM31.02,58.55c-1.42-.46-2.87-.82-4.25-1.35-.81-.31-1.72-1.12-2.16.12-.37,1.06.52,1.99,1.5,2.26,1.62.45,3.19,1.09,4.78,1.52,4.05,1.11,7.09,3.83,10.95,6.04-4.06.85-7.46,2.51-11.15,3.4-6.59,1.59-12.22-.35-17.17-4.37-2.3-1.87-2.96-5.07-3.37-7.98-.89-6.26-1.78-12.51-4.5-19.05,1.58.93,2.63,1.49,3.61,2.14.99.65,1.92,1.39,2.88,2.1,5.5,4.07,11.9,5.17,18.49,5.5,9.47.47,12.87,3.29,14.84,12.49.41,1.92,1.02,3.8,1.65,6.14-5.59-3.09-10.28-7.06-16.11-8.95ZM43.2,105.64c-5.6,1.98-11.35-.21-14.4-5.28-3.14-5.22-7.99-8.33-13.53-11.33,5.99-5.92,13.25-7.13,21.19-6.08,8.83,1.17,12.35,8.01,15.99,15.32-1.95-.49-3.56-.92-5.18-1.31-1.47-.35-2.97-.47-4.42-.04-.72.21-1.66.56-1.51,1.56.17,1.19,1.14.79,1.89.7,3.82-.51,7.08,1.18,10.48,2.53-3.68,1.02-7.01,2.69-10.5,3.92ZM93.9,97.36c1.24-.81,3.99-1.42,2.62-3.46-1.39-2.05-2.28.81-3.38,1.37-2.1,1.06-4.01,2.5-6.59,4.17.68-4.95,2.6-8.66,5.31-12.03,3.01-3.76,7.44-4.21,11.71-5.07,3.4-.69,6.93-.12,10.71-1.68-2.14,6.09-3.17,11.87-4.82,17.47-1.51,5.14-6.59,8.59-11.9,8.81-5.74.24-11.44.75-17.28,2.9,3.6-5.68,8.53-9.15,13.62-12.48ZM71.2,54.23c-3.82-2.28-5.28-6.04-5.67-10.21-.56-5.96,1.62-11.12,5.04-15.89,4.94-6.9,10.1-13.68,12.93-22.39,3.49,4.63,6.66,8.65,9.62,12.8,3.18,4.46,3.44,9.66,3.11,14.86-.43,6.78-2.25,13.24-5.02,19.44-1.52,3.41-3.99,5.79-7.34,7.48-2.98,1.5-6.06,2.88-9.08,5.9,1.51-8.43,2-16.24,5.19-23.48.23-.53.31-1.14.39-1.72.18-1.4,1.25-3.52-.67-3.86-2.1-.37-.99,2.05-1.48,3.16-1.9,4.25-2.88,8.79-3.97,13.28-.64,2.64-2.07,1.21-3.05.63ZM137.3,46.64c-3.9,9.12-11.39,11.69-19.98,13.01-5.86.9-11.83,1.01-17.85,2.4,1.22-3.28,4.03-5.09,6.22-7.08,5.23-4.76,10.81-9.27,17.84-11.31.7-.2,1.38-.59,2.26-.35,1.41.4,2.16-.59,2.09-1.76-.08-1.44-1.49-1.32-2.33-1-5.47,2.06-11.18,3.76-15.59,7.83-2.47,2.28-5.59,3.74-7.94,7.12.44-6.16,3.06-10.84,5.09-15.7.91-2.19,1.93-4.4,3.6-6.14,2.76-2.88,5.64-5.36,10.01-5.83,5.79-.62,11.59-1.46,17.29-2.81,1.66-.39,3.2-1.02,5.04-1.77-1.57,8.02-2.53,15.86-5.75,23.38Z"/>
      </g>
    </g>
  </g>
</svg>