<?xml version="1.0" encoding="UTF-8"?>
<svg id="Laag_2" xmlns="http://www.w3.org/2000/svg" viewBox="0 0 92.36 82.9">
  <g id="Laag_1-2" data-name="Laag_1">
    <g>
      <path d="M71.83,37.36c0,12.3.01,24.6,0,36.91,0,1.39-.07,2.8,0,4.19.02.38.07.77.1,1.15,0,.11-.05.7.02.78-.04.37.09.23.37-.43l-.39-.05c-.46-.26-1.83-.15-2.36-.19-.63-.04-1.26-.08-1.89-.11-1.63-.08-3.26-.14-4.89-.17-5.97-.13-11.88-.23-17.81-.96-2.95-.37-5.88-.82-8.82-1.25-1.37-.2-2.74-.38-4.12-.46-.21-.01-1.76-.09-1.77-.03l.53.39c-.01-.05-.01-.11-.01-.16.08-.12.01-.57.03-.73.21-2,.77-4.02,1.11-6,.51-2.94,1.02-5.87,1.52-8.81,1.01-5.94,1.8-11.93,2.91-17.85.55-2.93,1.14-5.85,1.68-8.78.19-1.02.38-2.01.46-3.04.03-.37.11-.75.12-1.11,0-.07.14-.47.13-.48-.9.23-1.11.39-.62.47.2.05.4.11.59.21,2.98,1.06,6.34,1.24,9.47,1.65,3.34.43,6.71.6,10.03,1.14s6.61.97,9.94,1.38c1.41.17,2.84.33,4.23.62.29.06.7.38.48-.08-.2-.42-.22,0-.33.25-.27.62-.48,1.18-.47,1.87.03,1.89,2.98,1.9,2.95,0-.02-1,.88-1.75.67-2.85-.24-1.22-1.4-1.8-2.51-2.03-2.98-.6-6.06-.83-9.07-1.2-3.29-.41-6.54-1.06-9.85-1.4s-6.79-.71-10.18-1.2c-1.57-.22-3.07-.47-4.57-.98-1.1-.37-2.18-.61-3.03.35-.65.73-.76,1.79-.86,2.73-.13,1.27-.3,2.37-.54,3.66-1.2,6.51-2.36,13-3.41,19.54-.55,3.43-1.14,6.86-1.73,10.29-.51,2.95-.91,5.95-1.56,8.87-.36,1.6-1.14,4.05.09,5.46.9,1.02,2.35.76,3.57.82,1.74.1,3.47.37,5.19.64,6.51,1.03,13.05,1.79,19.64,1.93,3.37.07,6.73.09,10.1.24,1.57.07,3.16.12,4.71.32,1.23.16,2.66-.06,3.08-1.44.35-1.16.02-2.48.01-3.66,0-1.83,0-3.66,0-5.49,0-3.82,0-7.65,0-11.47,0-7.81,0-15.63,0-23.44,0-1.9-2.95-1.9-2.95,0h0Z"/>
      <path d="M68.06,32.66c.2-2.21,1.02-4.57,2.81-5.97s3.93-2.04,6.09-2.26c1.03-.11,1.96.06,2.84.62,1.02.64,2.24,1.42,3.08,2.29,1.62,1.68,2.37,4.12,3.33,6.2,1.09,2.35,1.5,5,2.03,7.53s1,5.12,1.13,7.73c.23,4.61-.72,9.87-3.25,13.78-1.29,2-2.74,4.37-5.02,5.35-1,.43-2.35.83-3.43.55s-2.63-.24-3.36-1.3c-1.07-1.55-3.63-.08-2.54,1.49.75,1.08,1.85,1.92,3.13,2.29.6.18,1.22.12,1.82.3.68.2,1.36.28,2.08.24,2.77-.17,5.28-1.56,7.09-3.61s3.5-4.45,4.43-6.96c1.02-2.76,1.72-5.78,1.96-8.72.26-3.21-.17-6.46-.75-9.61s-1.05-6.48-2.28-9.39c-1.13-2.69-2.24-5.81-4.3-7.94-.94-.97-2.23-1.75-3.34-2.52s-2.48-1.26-3.9-1.29c-3.01-.06-6.27,1.09-8.63,2.92-2.56,1.98-3.69,5.14-3.98,8.29-.17,1.89,2.77,1.88,2.95,0h0Z"/>
      <path d="M32.92,59.39c.38-3.47-.91-6.63-2.12-9.8-1.34-3.51-3.08-6.88-4.94-10.13-3.68-6.45-8.01-12.49-12.07-18.69-1.03-1.58-3.59-.11-2.54,1.49,3.9,5.96,8.05,11.76,11.63,17.93,1.79,3.09,3.51,6.27,4.85,9.59,1.24,3.07,2.62,6.25,2.25,9.62-.21,1.88,2.74,1.87,2.95,0h0Z"/>
      <path d="M37.14,34.55c-6.65-7.14-12.18-15.22-18.25-22.83-1.18-1.48-3.25.62-2.08,2.08,6.08,7.61,11.6,15.69,18.25,22.83,1.3,1.39,3.37-.7,2.08-2.08h0Z"/>
      <path d="M7.17,26.2c2.29-.08,4.55-1.86,6.04-3.47s3.15-3.31,4.28-5.34,1.94-4.47,2.32-6.85c.33-2.05.49-4.1-.18-6.1-.6-1.79-1.75-3.52-3.61-4.17-2.42-.83-4.92.48-6.94,1.7-2.14,1.3-4.29,2.71-5.69,4.82-1.29,1.95-2,4.26-2.68,6.48-.43,1.4-.84,2.89-.68,4.37s.78,2.85,1.53,4.05c.68,1.1,1.37,2.1,2.52,2.75.58.33,1.2.63,1.83.85s1.49.09,2.06.4c1.67.9,3.16-1.64,1.49-2.54-.86-.46-1.7-.36-2.59-.64-.79-.25-1.63-.68-2.12-1.35-1.29-1.76-2.1-3.57-1.57-5.76.43-1.77,1-3.6,1.75-5.26.82-1.83,1.93-3.14,3.57-4.29s3.5-2.59,5.44-2.87c1.42-.2,2.26.7,2.76,1.95,1.21,3.01.12,7.04-1.18,9.85-.88,1.89-2.09,3.4-3.52,4.9-.7.74-1.34,1.58-2.16,2.18-.7.52-1.77,1.34-2.66,1.37-1.89.06-1.9,3.01,0,2.95h0Z"/>
      <path d="M72.03,39.35c-.2.12-1.11-.06-1.34-.06-.79,0-1.58,0-2.37,0-1.52-.01-3.05-.07-4.57-.2-3.19-.25-6.32-.93-9.52-1.11s-6.25-.47-9.36-.82-5.96-1.34-9.03-1.59c-1.89-.16-1.88,2.79,0,2.95,3.13.26,6.12,1.29,9.25,1.61,3.36.35,6.7.61,10.06.85s6.48.93,9.74,1.13c1.61.1,3.22.12,4.84.12,1.19,0,2.72.33,3.78-.34,1.6-1,.13-3.55-1.49-2.54h0Z"/>
      <path d="M72.53,73.16c-3.68,0-7.38.14-11.05-.06s-7.25-.77-10.86-1.24c-1.75-.23-3.51-.37-5.27-.5s-3.64-.6-5.47-.79c-3.38-.35-6.82-.71-10.21-.72-1.9,0-1.9,2.95,0,2.95,3.4,0,6.83.36,10.21.72,1.76.18,3.48.64,5.24.77s3.67.27,5.49.52c3.61.48,7.22,1.03,10.86,1.24s7.38.06,11.05.06c1.9,0,1.9-2.95,0-2.95h0Z"/>
      <path d="M71.1,32.5c-.07.59.19,0,.44-.25.3-.29.62-.54.94-.81.74-.62,1.46-1.23,2.46-1.33,1.98-.19,3.6.68,4.43,2.47,1.67,3.6,2.97,7.3,3.66,11.21.76,4.34.89,9.1.56,13.5-.09,1.17-.61,1.92-1.25,2.87-.53.79-.99,1.56-1.78,2.12-.91.65-1.49.92-2.6.95-.93.02-1.82-.01-2.57-.67-1.42-1.25-3.51.83-2.08,2.08,3.08,2.7,7.94,1.77,10.4-1.3,1.27-1.59,2.55-3.39,2.78-5.46.26-2.31.14-4.71.09-7.03-.1-4.61-.63-9.34-2.15-13.71-.64-1.82-1.44-3.6-2.21-5.37s-1.82-3.2-3.65-4.01c-2.08-.92-4.55-.83-6.51.31-1.54.9-3.66,2.52-3.9,4.41s2.72,1.86,2.95,0h0Z"/>
    </g>
  </g>
</svg>