<?xml version="1.0" encoding="UTF-8"?>
<svg id="Laag_2" xmlns="http://www.w3.org/2000/svg" viewBox="0 0 74.22 80">
  <defs>
    <style>
      .cls-1 {
        fill: #1a1a1a;
      }
    </style>
  </defs>
  <g id="Laag_1-2" data-name="Laag_1">
    <g>
      <path class="cls-1" d="M70.51,21.7c-5.02-2.4-9.21-6.25-14.6-8-2.41-.79-3.76-2.49-3.48-5.36.15-1.55-.29-3.22-.74-4.76-.55-1.86-1.74-3.06-3.97-2.84-1.45.14-2.95.17-4.39-.03-7.26-1-14.47-.99-21.7.3-1.87.33-2.61,1.25-2.63,2.98-.03,1.74.14,3.5-.04,5.22-.4,3.79-.62,5.6-5.38,7.09-4.7,1.47-9.3,3.56-12.79,7.36-1.41,1.54-.89,3.31,1.18,4.06,3.27,1.17,6.27-1.1,9.51-.75.67.07,1.49-.53,2.32-.21-.39.71-.38,1.52-.77,2.28-2.57,5-2.94,10.42-1.83,15.77.9,4.32,2.88,8.15,6.52,11.24,2.49,2.1,4.71,4.3,7.91,5.22.37.11.97.71.91.86-.9,2.22.13,4.72-1.02,6.89-.61,1.17-1.61,1.22-2.55.74-1.01-.52-1.77-2.45-3.08-.83-.9,1.11-2.23,1.23-3.25,2.18-2.37,2.21-3.72,5.12-5.94,7.41-.16.17-.31.34-.46.51,1.74,0,3.49.01,5.23.05,1.41-1.33,2.79-2.7,3.96-4.28.62-.85,1.43-1.46,2.51-.49,3.43,3.06,7.65,3.47,11.87,2.99,4.35-.49,8.61-1.64,12.41-3.98,1.32-.81,2.49-1.85,3.81-2.67.65-.41,1.28-.73,1.46.7.19,1.55.94,3.04,1.54,4.52.55,1.34.77,2.74.71,4.12.8-.39,1.59-.78,2.39-1.16.13-.69.5-1.33,1.1-1.82-1.16-3.15-2.29-6.32-3.27-9.53-.77-2.51-2.63-2.82-4.71-1.1-1.29,1.06-2.6,2.08-4.01,2.99-.94.61-1.44.75-1.7-.39-.42-1.83-1.41-3.42-1.74-5.35-.25-1.47.42-1.88,1.16-2.31,2.97-1.76,6.11-3.14,8.33-6.06,1.18-1.56,1.73-3.38,2.91-4.93,2.31-3.01,3.66-6.63,4.25-10.3.71-4.44.4-8.96-1.65-13.51,3.96.7,7.5,1.58,11.09,1.88,2.19.18,5.3.2,6.16-1.98.87-2.19-1.71-3.84-3.54-4.72ZM38.01,73.09c-1.85.52-3.86.5-5.79.72-.9.13-1.69-.43-2.52-.48-1.67-.11-1.66-.89-1.45-2.3.34-2.24,1.45-4.4.72-6.82-.2-.67.09-1.97,1.68-1.37,2.21.84,4.6.88,6.84.31,1.19-.3,1.33.05,1.25.88-.19,1.8.53,3.49,1.26,4.89,1.36,2.62-.03,3.62-1.99,4.17ZM54.21,43.04c-2.17,4.08-3.47,8.78-7.23,11.77-3.52,2.8-7.42,5.14-12.05,4.75-8.55.05-18.04-5.77-19.96-15.29-.62-3.08-.09-6.2.27-9.33.38-3.31,2.19-5.76,3.81-8.39,1-1.61,2.99-1.44,4.18-1.1,3.66,1.03,7.2-.34,10.82-.05,4.46.36,8.96.04,13.45.12,1.51.03,4.24.17,4.32.63.37,2.09,2.67,3.1,2.77,4.9.22,3.98,1.73,8.02-.38,11.98ZM7.2,23.53c1.49-.81,2.94-1.35,4.29-2.09,1.42-.78,2.92-1.32,4.36-2.03,7.07-3.49,7.55-4.82,7.11-12.11-.12-1.94-.03-2.55,2.13-2.82,5.38-.67,10.7-.65,16.06-.04,1.55.18,3.21.28,4.68-.1,2.37-.6,2.79.52,2.84,2.42.03,1.52.14,3.02.42,4.55.49,2.65,2.03,4.27,4.23,5.23,5.42,2.36,10.4,5.47,15.81,8.74-20.74-4.02-41.14-3.94-61.93-1.76Z"/>
      <path class="cls-1" d="M34.47,53.48c-5.91-.05-9.73-2.55-11.36-7.6-.27-.83-.22-1.61-.26-2.41-.04-.73.33-1.24,1.01-1.44.71-.21,1.26.13,1.6.75.26.47.46.97.65,1.47,1.68,4.54,6.97,6.85,11.24,4.71,2.67-1.33,5.53-2.54,6.48-5.93.22-.78,1.32-1.49,2.18-1.87,1.27-.57,1.58.43,1.5,1.43-.27,3.29-2.46,5.7-4.77,7.39-2.21,1.61-4.79,3.23-8.26,3.5Z"/>
      <path class="cls-1" d="M26.92,38.69c-2.07.87-2.52-.94-2.89-2.28-.44-1.63,1.79-4.21,3.55-4.3,1.88-.09,3.08,1.02,3.44,2.74.44,2.1-1.24,3.63-4.09,3.84Z"/>
      <path class="cls-1" d="M41.17,32.63c2.18-.02,3.79,1.43,3.61,3.41-.16,1.79-1.28,2.67-3.08,2.63-1.95-.04-3.81-.71-3.91-2.77-.09-1.86.99-3.48,3.38-3.28Z"/>
    </g>
  </g>
</svg>