<?xml version="1.0" encoding="UTF-8"?>
<svg id="Laag_2" xmlns="http://www.w3.org/2000/svg" viewBox="0 0 59.74 81">
  <defs>
    <style>
      .cls-1 {
        stroke: #000;
        stroke-miterlimit: 10;
      }
    </style>
  </defs>
  <g id="Laag_1-2" data-name="Laag_1">
    <path class="cls-1" d="M31.29,19.47c.52-2.11,1.33-3.73,2.29-5.22,1.28-1.97,2.77-3.66,4.68-4.87,1.81-1.15,3.76-1.65,5.7-2.21,3.19-.92,6.45-1.59,9.4-3.35,1.44-.86,2.93-1.68,4.2-2.92.31-.3.75-.57,1.19-.24.37.26.52.66.48,1.18-.28,3.56-.47,7.14-1.95,10.4-1.41,3.11-3.67,4.86-6.52,5.6-2.56.67-5.19.55-7.77.84-3.21.37-6.53.57-9.3,2.98-.8.69-1.32,1.59-1.37,2.78-.16,3.98.11,7.96.29,11.93.1,2.25-.06,4.53.32,6.79.13.8.31.95.91.94,1.51-.03,3.03-.29,4.51-.18,1.58.11,3.16.08,4.73.16.4.02.87.19,1.09-.49.06-.18.4-.45.47-.06.18.99.85.6,1.21.51,1.65-.42,3.27-.19,4.91.03.61.08.66.48.67,1.04.06,2.57-.01,5.14-.47,7.65-.18,1-.85,1.75-1.73,1.98-.41.11-.51.22-.66.7-1.05,3.36-1.11,6.93-1.71,10.38-.69,3.99-1.47,7.97-1.73,12.04-.04.64-.21.98-.86,1.14-1.11.28-2.22.15-3.32.21-2.81.15-5.6.6-8.4.97-.95.13-1.94.24-2.89-.13-.87-.33-1.7.14-2.55.18-1.54.08-3.08-.22-4.62.21-.67.19-.98-.52-1.25-1.13-.74-1.63-1.13-3.43-1.42-5.19-.38-2.33-.95-4.59-1.36-6.91-.56-3.17-1.02-6.36-1.53-9.55-.08-.53-.15-1.07-.29-1.58-.06-.19-.11-.69-.55-.27-.57.54-1.05.11-1.3-.52-.66-1.68-.97-3.42-.74-5.3.13-1.04.06-2.11.06-3.17,0-1.78.42-2.26,1.98-2.27,2.64,0,5.28.06,7.92-.02,2.32-.08,4.64-.34,6.97-.48.59-.03.53-.46.49-.86-.32-3.58-.37-7.17-.44-10.76-.07-3.97-.45-7.95-1.14-11.81-.63-3.5-1.5-7.01-3.41-9.98-.45-.7-1.13-.61-1.72-.7-2.36-.35-4.21,1-5.86,2.7-2.27,2.33-4.79,4.16-7.76,4.55-2.58.34-5.27.56-7.72-1.16-1.63-1.14-2.4-2.92-2.86-4.92-.18-.77.4-1.07,1.03-1.21,1.42-.3,2.88-.41,4.23-1.08,2.08-1.04,3.77-2.76,5.6-4.25,2.31-1.87,4.89-1.95,7.57-1.62,3.06.38,5.59,1.94,7.55,4.63,1.95,2.68,3.34,5.75,4.09,9.19.17.79.41,1.57.7,2.65ZM47.07,54.78c-.47,0-.86.02-1.25,0-5.04-.33-10.02.82-15.05.76-2.19-.02-4.38-.07-6.57-.17-1.77-.08-3.58.22-5.37.17-.59-.02-.7.36-.59.86.74,3.34,1.02,6.79,1.65,10.15.67,3.55,1.5,7.06,2.24,10.6.19.93.5,1.46,1.44,1.35.97-.11,1.95-.05,2.92-.02,1.04.04,2.08-.57,3.09-.23,1.63.56,3.2-.08,4.79-.12,2.34-.06,4.61-.96,6.97-.94.58,0,1.16,0,1.73,0,.26,0,.51,0,.53-.43.07-1.5.51-2.94.63-4.42.33-3.98,1.52-7.78,1.71-11.79.1-1.94.7-3.78,1.13-5.76ZM43.62,53c1.88,0,3.22-.02,4.55,0,.74.02,1.19-.19,1.33-1.2.23-1.7.4-3.39.42-5.11.01-.84-.27-1.06-.96-1.11-1.62-.11-3.21.35-4.83.3-2.46-.07-4.92-.07-7.38,0-2.55.06-5.1-.01-7.65.17-2.9.21-5.81.49-8.73.34-1.33-.07-2.67-.02-4.01,0-.29,0-.75-.17-.72.45.1,2-.33,4,.02,5.99.12.7.45.91,1.09.97,3.26.27,6.5-.43,9.78-.11,2.67.26,5.38.15,8.08-.12,3.17-.32,6.35-.85,9.01-.57ZM57.54,3.46c-.25.07-.41.06-.52.15-3.67,2.74-7.76,4.08-11.98,5.1-3.53.85-6.97,2.03-9.38,5.58-1.15,1.7-2.3,3.37-2.82,5.64.49-.33.84-.6,1.22-.81,2.81-1.5,5.83-2.02,8.86-2.26,2.17-.17,4.36-.18,6.51-.57,1.91-.35,3.76-1.08,5.11-2.79,2.19-2.8,2.78-6.32,3-10.04ZM24.65,8.22c-2.07-2.64-4.59-3.43-7.31-3.6-2.68-.17-4.83,1.2-6.87,3.08-1.92,1.76-3.94,3.33-6.53,3.6-1.85.19-1.83.35-.7,2.21.15.25.33.39.52.57,1.68,1.53,3.63,1.54,5.6,1.5,2.98-.06,5.46-1.54,7.73-3.65,2.19-2.02,4.34-4.14,7.55-3.7Z"/>
  </g>
</svg>