<?xml version="1.0" encoding="UTF-8"?>
<svg id="Laag_2" xmlns="http://www.w3.org/2000/svg" viewBox="0 0 270 328.42">
  <g id="Laag_1-2" data-name="Laag_1">
    <g>
      <path d="M109.73,209.16c-6.11-7.28-14.49-6.1-21.73-7.63-7.88-1.66-14.45-5.21-20.34-10.26-3-2.58-6.44-4.64-8.62-8.4-.85-1.46-4.84-1.91-7.7-.74-2.44.99-2.84,2.64-2.88,4.98-.03,2.17.83,4.13.97,6.18.31,4.61-4.43,10.11-9.08,10.95-4.22.75-8.1-2.62-9.65-8.18-.77-2.76-1.76-5.47-2.76-8.16-1.54-4.18-3.72-4.73-6.98-1.81-2.29,2.05-4.22,4.45-6.95,6.08-5.22,3.13-10.42,2.85-12.81-1.04-2.82-4.6-.5-12.9,4.51-15.09,2.49-1.09,5.95-1.44,6.91-3.84.84-2.1-1.71-4.65-2.19-7.04-.71-3.53-3.35-7.54.87-10.75,3.51-2.67,7.32-2.92,11.36-1.32,3.02,1.2,4.12,3.93,5.17,6.58.73,1.84,1.71,3.47,2.94,4.97,3.08,3.79,9.02,3.11,11-1.33.83-1.88,1.34-3.92,1.82-5.93,1.71-7.12,4.51-9.12,11.71-8.24,3.12.38,5.81,5.75,5.35,10.97-.33,3.7-1.14,7.37-1.23,11.06-.15,6.17,2.88,10.65,7.43,14.83,6.2,5.7,12.81,10.3,21.13,11.87,3.1.59,6.19,1.75,9.96,1.21-3.28-4.77-5.61-9.53-5.27-15.29.11-1.84-1.17-2.29-3.39-1.26-6.55,3.02-12.43.69-15.45-5.54-1.92-3.96-.58-7.4,3.58-9.14,5.92-2.48,5.97-2.84,1.28-6.83-.98-.83-1.88-1.85-2.54-2.94-2.06-3.44-1.06-8.93,2.03-10.9,4.1-2.61,6.68.24,9.12,2.91,1.03,1.13,1.26,3.43,3.37,2.83,2.24-.63.96-2.76,1.12-4.21.44-3.97-.64-7.98,1.71-11.88,2.01-3.32,4.72-3.82,7.82-3.35,3.18.48,5.16,2.57,5.24,5.99.05,1.96.5,4.16-.2,5.85-2.18,5.27.5,5.84,4.73,5.82,5.46-.02,8.71,3.1,8.27,7.52-.39,3.88-3.71,4.2-6.37,5.57-1.08.55-3.54-.24-3.2,2,.18,1.18,1.24,2.08,2.77,2.83,3.67,1.8,6.14,5.36,7.63,9.06,1.36,3.35-.84,6.27-3.51,8.18-3.13,2.25-8.94,1.44-11.79-1.21-.11-.1-.16-.27-.23-.41-1.58-2.88-4.62-4.12-6.95-2.71-2.2,1.34-1.59,5.1-.54,7.16,1.56,3.07,2.86,6.35,5.54,8.92,8.11,7.75,17.33,13.86,27.22,18.96,3.99,2.06,5.14.94,4.79-3.49-.46-5.82-1.09-11.65-1.05-17.47.03-5.3.58-10.64,1.41-15.88,1.09-6.95-2.75-12.64-4.32-18.88-4.31-17.14-14.66-29.51-30.9-36.73-3.38-1.5-6.96-2.08-10.6-1-2.17.64-3.49,1.76-4.67,4.17-3.46,7.07-6.38,14.92-15.52,17.11-5.69,1.36-12.16-1.28-14.08-6.55-1.25-3.43-.7-7.06-.2-10.61.07-.46.54-.91.51-1.34-.12-1.88,1.07-4.32-.69-5.5-1.74-1.16-3.74.31-5.32,1.45-3.86,2.79-7.8,4.33-12.61,2.31-5.95-2.51-8.77-7.67-4.08-14.15.76-1.05,1.82-1.89,2.74-2.82,2.26-2.28,2.91-4.32-.04-6.79-2.33-1.96-4.38-4.25-6.18-6.85-3.35-4.87-2.09-9.43,3.75-16.06,2.63-2.99,9.99-3.62,13.5-1.38,4.73,3.03,8.24,7.05,10.39,12.32,2.01,4.93,5.69,6.06,9.61,2.28,5.43-5.25,11.85-5.42,18.54-5,4.07.26,7.68,6.41,6.75,11.12-.98,4.97.56,7.03,5.57,7.54,3.03.31,6,.83,8.9,1.83,2.81.97,4.99,2.86,5.18,5.66.19,2.86-2.39,4.16-4.79,5.42-1.42.74-3.34.32-4.58,2.38,19.17,8.9,30.7,23.87,34.74,44.72-.14-5.17,2.94-9.75,2.05-15.22-.36-2.2,1.97-4.92,3.28-7.29,1.02-1.83,1.48-3.88.85-5.64-3.58-10.02-4.85-20.82-10.38-30.18-2.51-4.24-2.63-4.14-6.01-.63-2.15,2.24-4.03,5.42-8.37,4.28-4.91-1.29-6.07-5.1-6.48-9.08-.32-3.02-1.16-3.75-3.88-2.77-6.77,2.43-12.76-1.63-10.72-9.97.7-2.85-.21-4.43-3.11-5.21-9.35-2.53-15.87-14.43-12.8-23.55.65-1.95,2.12-3.71,4.52-3.97,3.39-.36,6.55.13,8.73,3.12,2.18,2.98,4.25,6.03,6.39,9.03.55.77,1.14,1.88,2.25,1.35.59-.28,1.04-1.27,1.2-2.01,1.33-6.28,2.69-7.69,8.52-7.13,4.18.4,5.16,3.99,5.62,7.44.87,6.59,1.57,7.13,8.28,4.89,3.63-1.21,7.33-2.36,10.84-.21,5.29,3.25,5.4,4.97,1.06,9.1-1.23,1.17-2.62,2.18-4.13,3.42,8.02,1.11,11.54,3.27,11.53,6.91,0,3.85-5.88,8-12.76,8.64,6.28,9.35,9.08,19.92,12.53,31.53,5.37-10.71,10.89-19.7,16.84-28.43,1.82-2.67-.03-5.52-1.12-7.65-5.33-10.34-10.7-20.68-17.19-30.37-1.34-2.01-2.53-2.95-5.2-.62-3.14,2.74-7.49,3.82-11.81,2.21-7.1-2.65-8.27-6.32-5.15-15.65-9.74,1.36-11.65.42-14.91-8.26-1.75-4.67.92-7.8,3.72-10.73,1.91-2,4.31-3.54,6.53-5.23,1.88-1.43.29-2.14-.62-2.79-6.73-4.78-8.13-9.6-4.1-14.58,5.52-6.82,11.82-6.47,17.88-2.28,4.05,2.8,6.72,6.52,5.59,12.01-.75,3.61,1.05,5.16,4.7,4.75,1.46-.16,2.95.04,4.42-.04,2.71-.15,5.28-.1,6.57,2.94,1.25,2.94,1.89,5.85-.25,8.68-.1.13-.27.23-.32.37-.98,2.97-5.71,4.84-3.88,8.23,1.84,3.43,5.63.21,8.41.64,3.48.53,7.09,1.14,8.95,5.37,3.1,7.07-1.87,10.71-10.13,12.13-1.74.3-3.58.04-5.63.04,2.01,6.98,7.08,11.82,10.25,18.56,1.18-7.92,7.06-12.05,11.48-17.02,5.1-5.73,7.66-12.35,10.42-20.44-4.94,2.26-8.6,2.5-12.64.3-6.06-3.3-4.82-12.48.28-15.03,7.27-3.63,7.4-5.61,2.49-12.48-1.54-2.15-2.8-4.64-1-7.16,2-2.81,4.82-4.28,8.44-3.84,2.93.36,4.69,2.14,5.48,4.77.8,2.68.14,7.23,2.8,7.49,2.76.27,2.31-4.6,4-6.86,1.04-1.39,1.49-3.2,2.28-4.78,2.74-5.43,8.25-7.38,13.84-4.92,3.68,1.62,5.13,6.62,3.11,11.36-1.33,3.11-2.89,6.12-4.39,9.15-.48.98-1.61,1.88.45,2.49,5.16,1.53,6.08,6.31,5.16,10.07-.99,4.04-5.4,5.21-9.68,4.7-1.09-.13-2.18-.21-3.7-.36.58,4.07,5.42,8.73-1.08,11.75-3.92,1.82-8.04.18-11.34-4.27-2.43,2.86-2.55,6.63-3.87,9.88-2.66,6.53-7.51,11.34-11.86,16.46-8.48,9.96-9.03,12.52-2.56,24.58,5.46-6.34,10.84-12.62,17.85-17.14,1.54-.99.74-1.93,0-3.22-3.61-6.24-4.43-12.58-.35-19.09,2.65-4.23,9.16-6.63,13.71-4.72,1.18.49,2.44.83,3.53,1.46,3.84,2.21,5.09-.05,5.84-3.26,1.01-4.31,1.05-8.75,3.73-12.77,2.38-3.56,5.38-4.98,9.01-4.04,3.94,1.02,6.69,3.82,6.96,8.34.54,9.06.52,8.8,9.93,7.43,3.8-.55,8.01-1.38,11.24,2.64,3.93,4.9,3.04,9.75-2.92,11.87-3.86,1.37-7.89,2.25-11.96,3.39,1.44,2.82,4.1,4.17,6.4,5.9,5.1,3.82,4.7,8.24-.03,12.29-5.88,5.03-19.18,3.39-24.7-.57-.91-.65-1.94-1.15-2.83-1.83-2.07-1.59-2.74-.45-3.29,1.47-.76,2.65-1.89,5.02-3.95,7.07-2.37,2.37-4.84,2.46-7.52,1.25-3.35-1.51-6.38-4.06-7.51-7.31-1.25-3.59-2.75-2.56-4.35-1.15-16.61,14.61-28.92,32.28-37.18,52.79-.1.24.11.62.26,1.3,8.94-4.13,18.32-2.87,27.66-2.57,10.16.33,20.23.04,29.31-5.6,2.2-1.37,2.43-2.17,1.21-4.74-2.04-4.33-5-8.81-2.49-14.14,2.72-5.77,8.62-7.18,13.48-3.01,1.72,1.47,3.32,3.09,4.73,6.66,1.45-5.98,3.49-10.29,7.52-13.3,5.75-4.3,11.81-4.7,16.26.7,2.14,2.6,2.04,6.02,2.31,9.14.43,4.92,2.33,6.12,6.58,3.35,2.97-1.93,6.18-2.71,9.14-1.11,2.01,1.09,5.04,1.9,5.05,5.33.01,3.52-1.79,6.23-4.59,7.5-4.61,2.1-3.94,4.06-1.04,7.1,2.52,2.64,4.89,6.1,2.55,9.61-2.29,3.43-6.05,3.89-10.29,2.61-2.48-.75-4.8-1.75-7.18-2.66-2.31-.89-3.83-3.41-6.64-3.38-.75,1.91.8,2.61,1.66,3.25,2.81,2.12,1.72,4.48.91,7-.85,2.61-2.62,3.19-5.19,3.41-6.15.53-10.62-1.65-13.57-7.09-.74-1.36-1.8-2.54-3.08-4.31-1.53,4.12-.74,8.83-5.54,10.83-2.59,1.08-4.58-.02-6.47-.8-4.85-1.99-8.1-6.65-2.88-17.01-2.83-.74-4.17,1.95-6.33,2.66-9.13,3.01-18.49,3.14-27.88,2.68-8.25-.4-16.28-1.39-24.2,2.8-4.13,2.18-5.64,5.23-6.13,8.98-1.61,12.38-4.27,24.6-4.31,37.24-.02,5.74-.62,11.54-.57,18.61,8.51-10.86,19.36-14.72,31.77-15.34-.86-7.09-2.01-14.01,3.18-19.96,2.51-2.88,4.91-4.77,9.01-2.75,4.06,1.99,5.76,4.89,4.95,9.28-.14.77-.67,1.48-.76,2.24-.12.95-.22,2,.81,2.64,1.28.79,1.72-.48,2.32-1.05,2.15-2.02,4.08-4.29,6.33-6.19,4.38-3.68,11.3-2.5,13.13,2.04.68,1.67.59,3.21.01,4.89-1.98,5.73-.36,8.01,5.91,8.44,5.18.36,9.42,4.18,10.32,9.31.78,4.41-2.23,7.25-6.91,7.13-3.07-.08-5.87-1.92-9.07-1.05-1.65.45-3.06.45-1.78,2.79,1.22,2.24,2,4.71,3.13,7,1.46,2.95,2.37,6.18.03,8.7-3.04,3.28-7.14,2.67-10.75.86-6.29-3.15-10.11-8.52-11.47-15.31-.82-4.07-2.08-5.07-5.43-2.36-3.19,2.57-6.84,3.39-10.91,3.11-2.37-.16-4.89-.31-5.99-2.45-1.23-2.41-.62-5.22,1.08-7.35,1.38-1.73,2.93-3.26,3.4-5.67-6.48.67-12.61,1.26-18.03,4.65-3.72,2.32-7.22,4.96-10.21,8.13-2.75,2.91-4.02,6.09-2.48,10.54,1.5,4.33,1.62,9.16,2.18,13.79.22,1.87,1.06,1.96,2.62,1.73,12.34-1.83,24.3-.18,36.43,2.7,7.08,1.68,8.34,5.18,9.45,11.45,2.44,13.71,1.68,27.43,1.63,41.15-.03,7.61-1.98,15.03-5.88,21.61-3.54,5.96-10.12,8.12-16.19,9.52-13.67,3.15-27.49,6.04-41.68,5.32-7.41-.37-14.55-1.89-21.4-5.06-8.26-3.82-10.53-11.29-12.09-19.05-1.89-9.43-1.8-19.17-.76-28.57.84-7.61-.06-15.54,4.32-22.95,4.78-8.09,11.92-11.62,20.08-13.74,5.73-1.49,11.8-1.66,17.8-2.42.41-5.23-.73-10.15-4.88-13.61-2.77-2.31-6.25-3.78-9.46-5.56-2.39-1.32-5.12-2.04-7.03-4.18-.68-.76-1.33-.86-2.51-.56-5.04,1.27-9.12,4.03-12.51,7.77-2.88,3.18-2.01,6.73,1.88,7.41,4.58.8,6.99,3.81,7.53,7.71.51,3.69-2.49,6.02-5.68,7.68-3.63,1.9-7.07,3.44-11.46,1.72-3.04-1.19-5.22,1.51-4.52,5.04.96,4.82-.08,9.46-2.04,13.69-1.59,3.44-4.89,5.27-8.9,4.6-3.74-.63-6.18-2.95-6.5-6.78-.25-2.94-1.84-5.7-.36-9,.68-1.52-.01-4.84-2.52-5.64-2.25-.72-3.05,1.58-4.28,3.12-3.47,4.33-7.83,7.3-13.73,7.17-5.2-.12-8.66-4.22-7.75-9.46,1.01-5.78,3.86-10.12,9.81-11.92,1.92-.58,3.76-1.46,6.06-2.37-5.89-3.67-9.29-8.29-7.56-15.13.73-2.89,1.6-5.93,5.61-6.17,3.37-.2,6.26.68,8.33,3.29,1.69,2.13,3.46,3.95,6.04,4.99,2.94,1.18,4.81,1.02,6.75-2.18,4.52-7.45,11.78-9.8,15.8-.81.97,2.17,1.65,1.52,3.13.5,4.21-2.93,7.78-6.76,13.14-8.68ZM101.86,254.96c-.48,6.48-.78,12.63-1.43,18.75-1.2,11.37-1.44,22.71.84,33.96.77,3.8,2.36,7.56,5.92,9.65,6.45,3.79,13.33,5.93,21,6.22,13.41.51,26.57-1.62,39.45-4.38,13.51-2.89,18.86-7.13,20.2-21.78,1.27-13.89,1.3-28-.87-42.8-.98,2.37-2.64,3.03-4.2,3.7-7.56,3.19-15.26,5.55-23.58,6.22-11.93.96-23.88,3.43-35.76.7-7.68-1.77-15.79-3.25-21.56-10.22ZM107.98,112.14c-3.71-2.31-7.05-3.4-10.92-3.45-7.74-.09-10.24-2.79-10.14-10.33.02-1.47.23-3.02-.14-4.41-.49-1.83-1.31-3.72-3.86-3.31-4.2.67-8.17.67-12.12,3.75-9.53,7.43-13.06,6.03-18.51-4.54-1.67-3.23-4.05-6.37-7.13-8.53-2.84-1.99-6.2-2.04-9.02.05-5.36,3.98-4.82,9.78,1.1,14.42,7.27,5.69,7.53,9.25,1.14,15.75-1.87,1.9-4.52,3.95-2.25,6.75,2.25,2.79,5.64,3.21,8.74,1.14,2.03-1.35,4.05-2.5,6.42-3.19,5.49-1.6,9.13.8,9.01,6.45-.07,3.2-.96,6.37-1.23,9.57-.55,6.5,3.96,9.56,10.19,7.57,5.79-1.85,8.06-7.37,9.33-11.52,2.36-7.7,6.96-9.54,13.79-9.79,5.74-.21,10.53-2.97,15.62-6.39ZM186.34,66.87c-.22,1.3-.05,3.05,1.02,4.62,3.12,4.6,6.63,8.9,8.36,14.4.65,2.05,3.19,3.34,5.64,3.09,2.52-.27,2.29-2.54,2.74-4.4,1.86-7.61,5.05-8.76,11.37-4.56,1.09.72,2.03,1.56,3.06,2.33,4.61,3.46,14.3,3.76,18.77.39,2.12-1.6,3.79-3.58.11-5.52-2.91-1.53-4.66-4.41-7.33-6.32-2.89-2.07-1.5-6.95,1.98-8.15,1.66-.57,3.4-1.01,5.13-1.2,3.59-.39,9.2-.13,8.48-4.47-.68-4.09-6.03-2.59-9.69-1.69-6.62,1.62-10.48.22-13.35-4.31-1.57-2.47-1.01-5.12-.77-7.57.36-3.56-3.08-3.27-4.5-4.88-.97-1.1-1.54,1.74-2.37,2.69-1.73,2-1.83,4.62-2.2,7.2-.52,3.62-1.33,7.62-4.52,9.74-2.83,1.89-5.7.01-8.74-1.28-8.56-3.63-13.43,2.04-13.2,9.91ZM209.92,143.72c-.08,3.69,1.57,6.06,4.94,6.27,3.05.19,4.23-2.13,3.9-4.95-.38-3.28,1.17-5.68,3.91-6.54,3.27-1.02,5.06,1.69,6.1,4.31,1.66,4.17,4.96,5.92,8.94,6.96,1.27.33,2.77.93,3.5-.43.57-1.06.42-2.49-.69-3.61-.77-.78-1.11-2-1.89-2.77-1.74-1.72-3.24-3.46-1.35-5.88,2-2.56,4.42-2.05,6.98-.79,4.15,2.05,8.38,3.93,12.53,5.98,2.38,1.17,5.3,1.77,6.56-.48.88-1.58-1.09-3.92-2.79-5.59-4.97-4.9-4.59-7.74,1.18-11.97.65-.48,1.18-1.14,1.81-1.66,2.81-2.31.55-3.14-1.23-3.8-2.05-.76-3.7.64-5.44,1.48-7.23,3.5-12.5.29-12.52-7.61,0-1.48.2-2.99-.08-4.42-.53-2.76-1.75-4.62-5.2-4.47-5.37.24-9.53,4.09-10.41,10.67-.37,2.76-1.58,4.52-4.24,5.09-2.52.55-4.35-.45-5.67-2.73-.8-1.38-2.05-2.49-3.05-3.76-1.2-1.52-2.85-1.52-4.46-1.24-2.3.4-.88,2.4-1.37,3.59-1.04,2.55-.15,5.14,1.37,6.67,5.89,5.93,2.58,11.58.08,17.36-.63,1.46-1.78,2.78-1.43,4.31ZM83.98,249.71c-.05-7.25,5.02-10.94,11.62-8.97,3.08.92,9.06-1.24,10.41-3.95,1.42-2.86-1.57-3.71-2.91-4.79-2.19-1.74-5.09-4-7.48-3.77-3.94.37-3.6-1.33-3.86-3.96-.32-3.25-1.47-6.93-4.68-7.9-3.1-.94-4.64,2.67-6.56,4.69-.11.12-.22.26-.27.41-2.02,5.2-6.89,5.54-11.81,3.18-2.58-1.24-4.29-3.43-6.3-5.31-1.56-1.46-3.36-4.06-5.39-2.45-1.98,1.58-1.8,4.61-.72,7.24.72,1.76,1.99,2.97,3.28,4.18,5.67,5.31,5.11,8.41-2.5,10.53-4.07,1.14-6.82,3.32-8.75,6.83-.81,1.48-2.13,2.92-.53,4.79,1.52,1.78,3.26,2.39,5.51,1.82,3.6-.91,6.3-3.16,8.17-6.16,2.19-3.51,5.28-4.27,8.71-3.07,3.63,1.27,5.72,3.88,5.28,8.23-.35,3.42-1.07,7.04.97,10.25.76,1.19,1.09,3.63,2.34,3.3,1.38-.36,2.98-1.46,3.9-3.22,2.11-4.02,2.33-8.13,1.57-11.91ZM56.23,178.47c-.99-4.95-1.77-9.61-.05-14.49.82-2.34.5-5.24.13-7.8-.54-3.8-4.2-4.92-7.06-2.28-2.14,1.98-2.48,4.7-2.71,7.49-.57,6.95-5.78,10.73-12.65,9.41-5.7-1.1-8.03-5.44-9.94-10.21-1.61-4.02-4.34-5.16-8.42-3.82-4.63,1.52-2.07,4.45-1.47,6.96.33,1.39.98,2.71,1.48,4.06,1.88,5.01.54,7.92-4.44,9.98-1.78.73-3.73,1.45-5.07,2.73-2.11,2.03-3.32,4.46-1.92,7.73,1.43,3.32,4.21,2.65,6.18,1.95,1.71-.61,3.47-1.91,4.92-3.59,2.54-2.94,5.45-6.75,9.89-5.67,4.15,1,6.57,4.34,6.9,8.99.16,2.18,1.05,4.34,1.79,6.45,1.3,3.74,5.59,6.49,9.49,2.94,3.27-2.99,2.57-6.39,1.74-9.87-1.65-6.95.98-10.47,8.15-10.75.97-.04,1.93-.12,3.04-.19ZM140.02,29.01s-.76-.01-1.56,0c-7.16.13-7.6-2.17-7.8-8.64-.06-2.12.24-4.39-.59-6.23-1.67-3.69-5.28-4.13-8.87-4.2-2.81-.05-4.18,1.92-4.6,4.17-.62,3.28,1.3,5.31,4.17,6.82,4.2,2.22,4.35,6.58.46,9.58-2.41,1.86-4.79,3.8-7.37,5.41-3.78,2.37-1.74,5.56-1.04,8.19.77,2.86,3.65,2.9,6.16,2.54,7.98-1.15,9.67,1.03,6.8,8.9-1.35,3.69-.12,6.34,3.64,6.78,3.3.38,6.78.73,8.85-3.2,1.13-2.15,3.55-2.28,5.83-1.98,4.51.59,9.02.96,13.42-.63,1.78-.64,3.34-1.71,3.07-3.82-.28-2.16-2.15-2.06-3.8-2.05-1.96.01-3.94-.15-5.89.04-3.84.37-6.54-.83-8.14-4.58-1.63-3.85-.27-6.87,2.16-9.64,1.64-1.87,3.87-3.92,2.75-6.29-1.11-2.33-3.82-1.29-5.94-.59-.24.08-.6-.18-1.74-.58ZM108.27,94.97c5.58-.08,6.84.89,7.16,5.3.2,2.65.18,5.5,3.21,6.37,3.19.91,4.41-2.25,6.19-3.97.84-.81,1.11-2.28,1.47-3.51.82-2.8,2.12-4.18,5.24-2.61,2.59,1.31,5.25.01,7.34-1.2,1.46-.85,4.01-1.94,3.34-4.65-.73-2.98-3.22-1.21-4.89-1.64-.61-.16-1.3-.02-1.96-.03-2.07-.04-4.2-.72-4.88-2.58-.79-2.15.79-4,2.41-5.44.7-.63,1.58-1.17,2.47-1.45,1.59-.49,1.99-1.54,1.69-2.97-.38-1.76-2-2.26-3.3-2.1-2.35.29-4.65,1.04-6.93,1.75-8.96,2.78-11.29,1.31-12.37-7.83-.23-1.92-.47-3.81-3.17-4.03-2.79-.24-2.48,1.45-2.8,3.32-.97,5.75-5.63,7.38-10.28,3.69-3.03-2.41-4.98-5.77-6.81-9.05-1.18-2.11-3.15-2.6-4.67-2.46-1.27.12-1.63,2.37-1.82,4.05-.41,3.55,2.22,5.97,3.1,9.04.96,3.34,3.26,5.51,6.93,6.28,5.61,1.18,7.32,4.35,5.96,10.32-.98,4.31.95,6.31,5.34,5.56.96-.16,1.95-.16,2.03-.17ZM187.23,204.27c3.08.02,4.26.86,4.98,3.65.48,1.86.71,3.78,1.22,5.63,1.77,6.46,6.99,11.16,12.26,11.43,2.94.15,4.25-1.01,2.89-3.63-1.33-2.57-1.67-5.54-3.58-7.86-1.61-1.95-1.55-4.39-.23-6.33,1.41-2.07,3.8-3.62,6.29-2.69,2.28.85,4.46.75,6.69.74,1.64,0,3.83,2.38,4.88-.76.84-2.5-1.16-3.8-2.56-5.38-1.21-1.35-2.64-1.49-4.3-1.78-7.13-1.24-13.25-3.5-10.6-12.01.57-1.84,2.13-3.61-.66-4.83-2.53-1.11-4.91-.34-6.19,1.84-1.46,2.48-3.55,4.28-5.57,6.09-3.01,2.7-7.9,1.1-9.43-2.67-.83-2.05-1.06-3.81-.12-6,.63-1.47.85-3.84-1.32-4.71-2.02-.81-3.47-.11-4.65,2.12-2.02,3.81-3.34,7.41-2.03,11.85,1.58,5.39,3.01,10.95-2.54,15.35-.81.64-1.88,2.29-.63,3.43.99.9,2.39,2,3.93,1.22,1.99-1.02,4.33-1.18,6.1-2.8,1.45-1.33,3.22-2.17,5.19-1.91ZM108.69,156.01c-4.95-.04-7.54-3.04-7.11-7.53.21-2.24.15-4.46.99-6.68.76-2.02-.68-3.4-2.7-3.83-1.82-.39-2.48.53-3.25,2.27-1.46,3.31-.84,6.62-.24,9.69.59,2.99-.69,4.62-2.37,6.33-1.99,2.03-4.45,1.55-6.56.43-1.78-.94-3.44-2.23-4.54-4.12-.5-.85-1.35-2.06-2.77-1.02-1.15.84-.94,1.65-.39,2.91,1.08,2.44,2.64,4.39,4.47,6.28,2.88,2.97,2.23,6.65-1.42,8.68-1.26.7-2.56,1.35-3.88,1.94-3.12,1.39-2.72,3.39-1.02,5.62,2.81,3.67,6.33,3.22,10.02,1.68,6.76-2.82,13.07-2.47,18.79,2.53.96.84,2.06,1.58,3.22,2.08,2.25.98,4.25-.1,5.75-1.54,1.97-1.88.15-3.79-.95-5.1-1.64-1.95-3.35-3.89-5.75-5.2-2.18-1.19-3.5-3.44-3.3-6.1.15-2.1,1.52-3.43,3.43-4.23,2.34-.97,6.66-.87,5.96-4.05-.76-3.44-4.52-1.27-6.39-1.04ZM184.19,250.52c-4.76-.54-9.3,1.41-13.55-1.7-.84-.62-3.02-1.43-4.86.05-6.75,5.41-14.18,7.4-22.38,3.39-1.81-.88-3.2-.97-4.91.31-5.87,4.38-11.78,4.32-17.7-.08-2.8-2.08-5.72-.94-6.68,1.7-.83,2.29-1.15,2.38-3.09,1.51-2.25-1.01-1.69-2.63-1.01-4.02,1.82-3.72,10.18-5.99,13.44-3.27,4.75,3.97,8.88,2.43,13.46-.07,3.23-1.76,2.46-4.23,1.66-6.61-.93-2.77-2.82-2.05-5.07-1.27-1.32.46-2.9.83-4.53.91-6.55.34-12.91,2.16-18.78,5.11-5.85,2.94-6.1,6.68-.63,9.9,7.03,4.14,14.98,5.3,22.99,5.99,8.01.69,15.94-.75,23.9-1.14,7.34-.36,14.53-2.35,21.49-4.83,2.86-1.02,5.58-2.48,6.26-5.89ZM206.17,7.91c.28-1.18-.48-2.77-2.73-3.41-2.2-.63-3.98.26-4.95,2.15-1.9,3.7-3.41,7.61-5.36,11.29-1.44,2.71-3.19,5.65-6.91,5.06-3.67-.58-5.23-3.49-5.76-6.88-.25-1.58-.05-3.14-.95-4.68-1.08-1.85-2.53-1.3-3.76-.77-1.05.45-1.41,1.37-.58,2.78,6.54,11.2,6.46,11.17-3.75,19.25-1.56,1.24-4.31,2.63-1.95,5.5,1.92,2.34,4.14,3.69,7.15,1.93,1.1-.65,2.16-1.39,3.18-2.16,3.76-2.86,7.43-1.79,8.39,2.81.43,2.05,1.79,3,2.92,4.3,1.11,1.27,2.37,2.48,4.14,1.02,1.89-1.55-.37-2.39-.6-3.58-.39-2-2.66-3.87-.41-6.25,1.74-1.85,3.67-3.09,5.98-2.19,2.38.93,4.73,1.57,5.89-.99,1.11-2.44-1.26-3.76-3.03-5.11-3.04-2.33-3.93-4.94-1.81-8.71,1.83-3.27,4.63-6.2,4.91-11.35ZM183.27,245.53c-2.78-2.49-5.69-4.17-9.5-4.97-8.18-1.72-16.31-1.09-24.49-.84-5.87.18-6.29.93-4.35,6.38.96,2.72,3.01,3.16,5.25,3.44,4.4.56,8.29-1.01,11.67-3.61,3.3-2.54,6.72-3.3,10.35-1.31,3.62,1.99,7.17,2.63,11.08.92Z"/>
      <path d="M147.56,278.5c-2.28-1.52-5,.26-7.75.69-10.79,1.68-21.35.6-31.86-1.91-1.83-.44-3.98.35-5.36-1.66-.47-.69-1.15-1.27-.6-2.13.43-.68.99-1,2.01-.73,3.21.86,6.56.64,9.87,1.24,12.57,2.29,25.14,1.12,37.75-.56,7.05-.94,14.05-1.44,20.46-4.9,1.49-.8,3.56-.57,4.16,1.28.52,1.61-1.16,2.68-2.45,3.22-8.17,3.43-16.73,5.1-26.23,5.47Z"/>
      <path d="M119.11,291.75c16.24,1.72,31.47-2.43,46.76-5.97,2.24-.52,4.11-2.5,6.29-3.46,1.26-.55,3.26-.92,4.06.39.86,1.42-.55,2.33-1.76,3.39-4.55,4.01-10.5,3.84-15.72,5.77-10.28,3.81-21.17,3.54-31.81,4.85-2.47.3-5.09-.54-7.64-.9-1.58-.23-3.62-.48-3.66-2.36-.06-2.87,2.61-.68,3.47-1.71Z"/>
      <path d="M174.28,308.24c-5.23,2.54-10.42,5.04-16.13,6.1-1.56.29-3.27.19-4.84-.11-.89-.17-1.53-1.14-1.38-2.3.13-1.01.55-1.08,1.59-1.08,4.46,0,8.5-1.54,12.34-3.77,2.95-1.72,6-2.73,8.41,1.15Z"/>
    </g>
  </g>
</svg>