<?xml version="1.0" encoding="UTF-8"?>
<svg id="Laag_2" xmlns="http://www.w3.org/2000/svg" viewBox="0 0 263.58 200.09">
  <defs>
    <style>
      .cls-1 {
        stroke: #000;
        stroke-miterlimit: 10;
        stroke-width: 2px;
      }
    </style>
  </defs>
  <g id="Laag_1-2" data-name="Laag_1">
    <g>
      <path class="cls-1" d="M122.31,64.52c-5.58,4.29-10.62,7.37-17.22,6-.72-.15-1.67.37-2.1-.59-.46-1.02-.26-1.66.88-2.54,6.08-4.74,10.65-10.89,15.55-16.77,1.82-2.18,1.34-4.51,2.32-6.65,1.39-3.04-1.96-3.33-3.58-4.59-.58-.46-1.48-1.15-1.44-1.68.38-5.38-6.5-9.29-3.1-15.26.16-.28-.07-1.13-.29-1.21-5.71-2.07-2.12-7.11-3.69-10.86-4.52,2.71-10.39,3.12-13.68,8.35-1.69,2.68-5.63,1.37-7.62,3.29-3.39,3.28-5.6.17-7.83-1.21-1.73-1.07-1.64.21-2.06.85-2.83,4.25-5.37,8.63-6.02,13.84-.19,1.58-.54,4.07-1.73,4.18-2.34.22-1.43-2.34-1.99-3.75-2.22-5.51-4.01-11.39-7.36-16.15-1.48-2.11-5.14-4.53-8.6-4.54-2.71,0-4.59-.94-6.4-2.69-1.4-1.36-2.37-3.31-5.2-2.11-1.54.65-4.66-2.58-5.37.11-.82,3.15-3.88,6.26-1.07,10.26,1.57,2.24,3.48,5.73-.38,8.09-1.57.96-.12,1.82-.33,2.72-.44,1.88.96,4.53-.75,5.64-3.67,2.39-.9,3.66.59,4.86,5.84,4.68,11.58,9.51,18.29,12.98.83.43,2.14.53,1.96,2.09-.16,1.43-1.68,1.85-2.25,1.81-7.85-.57-14.75,4-22.48,4.03-1.68,0-3.36.68-5.15,1.08,4.44,5.65,4.34,6.23-1.77,9.84-.69.41-1.42.48-1.11,1.49,1.75,5.7-2.39,7.66-6.25,9.64-1.9.98-3.71,1.55-3.19,4.39.38,2.06-1.39,3.55-2.43,5.37,2.71.19,5.14.95,6.74,3.19,1.55,2.17,3.89.96,5.16.51,3.31-1.17,6.34.15,8.38,1.57,2.69,1.86,4.64,1.56,7.31.8,3.49-.99,5.86,1.06,6.22,4.79.18,1.82,1.47,1.62,2.9,1.56,3.58-.15,6.33-2.09,8.67-4.32,3.72-3.54,7.71-6.9,10.53-11.31.57-.89.78-2.5,2.53-1.99,1.68.49,1.9,1.8,1.78,3.24-.27,3.15.39,6.28-.69,9.49-.72,2.14-.14,4.72-.14,7.7,7.66-4.47,12.67-10.52,16.3-17.65,1.75-3.44,2.85-3.29,5.44-.87,4.02,3.76,6.61,8.64,10.47,12.48,1.02,1.02,1.09,2.25-.08,3.16-1.36,1.06-1.87-.55-2.4-1.17-2.43-2.86-4.65-5.9-7.05-8.78-3.14-3.77-3.58-3.73-6.21.31-3.63,5.57-8.04,10.38-13.53,14.17-.86.59-1.76,1.34-2.73,1.5-2.23.37-4.1.66-3.35-3.1.94-4.68.87-9.56.88-14.62-3.91,5.07-8.98,8.68-13.92,12.44-2.77,2.11-5.9,2.18-9.22,1.88-2.37-.21-3.51-1.22-3-3.44.32-1.38.26-2.17-1.1-2.67-1.34-.5-2.87-.91-3.78.38-2.55,3.63-4.12,2.32-6.53-.42-2.82-3.2-7.72-2.85-12.39-.06-1.26.75-2.67,2.17-4.09,1.32-1.6-.97.06-2.4.24-3.64.23-1.58-.07-2.65-2.07-2.56-2.44.11-4.89.06-7.33,0-.82-.02-1.91.4-2.33-.8-.42-1.22.22-2.31,1.2-2.64,1.73-.59,2.64-2.02,3.85-3.14,2.08-1.91,3.94-3.66.7-6.47-2.05-1.77-.97-3.19,1.61-3.45,1.92-.19,3.83.35,5.77-.69,4.15-2.21,4.55-3.32,1.69-6.75-.7-.83-1.58-1.61-1.05-2.78.57-1.28,1.84-.65,2.81-.76,1.33-.14,2.61,0,3.94-.73,2.33-1.28,3.41-2.39.32-3.86-1.8-.85-1.74-2.65-3.08-4.18,9.2-3.06,18.62-2.92,27.14-6.6-6.46-3.91-11.83-9.53-17.92-14.27-1.24-.96-3.17-2.82-2.26-5.06.68-1.67,2.23-2.02,4.09-1.85,2.29.21,1.21-1.58,1.01-2.52-.5-2.37-4.54-5.48,1.58-6.28.93-.12.12-1.14-.15-1.76-.72-1.67-1.64-3.17-2.71-4.65-.92-1.28-1.59-2.57.14-4.3,2.18-2.18,2.6-5.36,2.11-8.38-.2-1.21-1.01-2.25.46-3.07,1.55-.86,2.44.03,3.41,1.22,1.89,2.3,4.06,3.22,6.65.82,1.18-1.1,1.9-.55,2.76.76,1.32,2.02,3.39,4.98,5.32,4.48,4.26-1.1,6.37.55,8.21,3.78.12.21.61.46.75.39,5.66-3.13,4.5,2.54,5.58,4.63,1.81,3.49,2.93,7.34,4.67,11.89,2.01-6.15,4.58-10.98,8.09-15.43,2.49-3.16,3.48-1.8,4.6.59,1.87,3.98,2.2,4.03,5.01.58.9-1.1,2.03-3.36,3.4-.25.6,1.37,1.36.73,2.09.1.23-.2.47-.41.64-.65,2.38-3.24,3.32-7.62,9.28-7.11,3.98.34,6.33-4.13,9.22-6.73.75-.67,1.29-2.51,2.76-1.35,1.23.98.93,2.43.24,3.72-2.13,3.95-2.6,8.16-2.09,12.62,2.17.29,2.99-2.21,5.11-1.98.79,3.2-1.87,5.67-2.21,8.72-.39,3.44-.19,3.83,3.02,3.81,2.02-.01,2.2,1.41,1.97,3.17-.38,2.89-3.65,7.67,3.73,6.03,1.53-.34,1.07,1.59.94,2.45-1.2,7.57-4.39,14.16-9.82,19.65-2.42,2.44-3.94,5.7-6.9,7.77,4.07-.4,7.63-1.87,10.5-4.82.84-.87,1.45-1.99,2.7-2.35.9-.26,1.67-1.53,2.8-.32.84.9.7,1.76.54,2.89-1.75,12.35-12.08,22.65-25.44,23.41,2.67,4.91,5.26,9.67,7.85,14.42.71,1.31,1.72,2.82-.25,3.73-2.19,1.01-1.66-1.07-2.16-2.15-2.71-5.86-5.64-11.62-9.85-16.56-2.29-2.69.39-3.11,1.53-2.89,10.82,2.12,17.19-4.03,22.93-11.75,1.37-1.84.87-3.95,2.33-6.47Z"/>
      <path class="cls-1" d="M241.34,79.67c.79,1.1,2.8,1.22,2.33,2.9-.38,1.35-1.82,1.2-2.96,1.58-2.79.93-4.75,2.49-1.83,5.48,2.07,2.12.4,2.07-1.26,2.75-9.04,3.75-18.14,3.29-27.34.89-.51-.13-1.1.08-2.1.18,3.39,3.56,7.47,4.87,11.57,6.1,1.09.33,2.71.05,2.59,1.69-.08,1.08-1.01,1.69-2.33,2.24-12.23,5.11-22.3,2.61-30.76-7.98-2.94,5.26-5.11,11.01-9.54,15.25-.41-.22-.81-.44-1.22-.66,3.47-6.73,6.94-13.47,10.72-20.81,2.24,5.66,5.65,9.82,10.63,12.04,4.98,2.22,10.35,3.14,16.31.64-4.83-2.46-9.7-4.59-11.64-9.82-.35-.95-2.42-1.34-1.01-2.9,1.09-1.21,1.93,0,2.82.3,6.93,2.38,14.07,2.98,21.35,2.84,2.05-.04,3.82-.77,5.67-1.3.45-.13,2.14-.07,1.62-1.97-.75-2.71.82-4.52,2.39-6.93,2.39-3.67,7.09-5.77,8.13-8.54,1.6-4.25,4.63-5.82,7.52-8.34-2.36-2.37-6.19-2.83-7.42-6.36-.27-.77-1.29-.46-2.04-.46-7.24-.02-11.89-3.53-13.33-10.38-.39-1.84-1.44-1.61-2.61-1.65-4.4-.17-8.68.42-12.78,2.11-1.45.6-2.98,1-4.77,1.14,3.97-4.59,5.99-10.36,10.07-14.71,1.75-1.87,1.42-3.74,1.57-6.12.3-4.74-3.51-8.59-1.74-13.48,1.14-3.17-3.29-5.3-2.84-8.71-.37.05-.81,0-1.11.18-3.22,1.85-7.39,1.9-9.51,5.89-1.04,1.96-2.72,4.46-6.02,2.76-1.43-.74-2.14.88-2.89,1.68-2.04,2.17-4.18,2.48-6.55.61-.67,5.56-1.19,10.91-2.02,16.21-.42,2.67.68,5.05.82,7.59.08,1.36.31,3.11-1.25,3.59-1.46.45-2.68-.46-3.52-1.96-2.35-4.15-5.92-7.12-9.62-10.06-2.66-2.12-4.68-5.04-7.08-7.71-2.12,6.16-2.53,6.39-8.17,3.54-1.07-.54-1.52-.45-2.21.24-2.94,2.91-6.07,1.74-9.18.38-1.31-.57-3.09-2.17-3.74-1.78-2.56,1.53-6.24.03-7.67,1.72-1.28,1.52,1.08,4.95-.5,7.52-.38.62.4.94.98,1.19,1.97.85,3.23,2.85,3.61,4.46,1.37,5.72,4.21,10.71,6.81,15.84.46.9.09,1.64-.56,1.93-6.84,3.12-.71,4.99.98,5.96,5.36,3.09,11.36,4.43,17.57,4.77,1.4.08,3.46-.95,4.07.8.76,2.18-1.55,2.77-2.88,3.95-3.64,3.23-8.57,4.07-12.73,7.11,3.48,2.49,7.27,3.28,11,3.57,3.65.28,7.26,1.48,11.09.22,3.01-.99,4.66.59,3.66,3.9-1.42,4.7-2.99,9.36-4.4,14.07-.48,1.62-1.5,2.53-2.97,1.9-1.2-.51-.5-1.71-.15-2.76,1.25-3.82,2.11-7.78,3.55-11.53,1.18-3.08-.33-2.96-2.5-2.86-7.08.32-13.97-.51-20.32-3.92-.91-.49-2.28-.6-2.41-2.33-.15-1.96,1.3-2.25,2.35-2.86,3.6-2.09,7.27-4.04,11.23-6.21-4.41-1.11-8.46-1.97-12.4-3.18-3.88-1.19-7.68-2.76-9.5-6.86-.82-1.83-2.21-3.92.94-5.02,1.24-.43,1.22-1.39.8-2.16-.74-1.37-.96-3.26-3.23-3.33-2.55-.09-3.46-.66-1.85-3.63,1.99-3.68-.54-6.76-3.26-9.19-1.31-1.17-3.03-1.9-4.57-2.83-1.44-.86-1.65-2.28.03-2.44,5.64-.52,2.63-3.59,1.63-5.58-1.01-2.01-4.74-3.46-2.76-5.9,1.63-2.02,4.35.66,6.51,1.28,2.67.77,4.38,1.4,5.26-2.3.62-2.61,2.55-2.28,4.17-.26,1.09,1.35,1.7,3,3.62,3.81,2.92,1.23,5.55,2.97,5.76-2.29.04-.94.83-1.59,1.83-1.76,1.54-.26,1.51.81,1.86,1.89.6,1.88,2.41,3.16,4.1,3.13,1.54-.03,1.06-2.18,1.39-3.45.79-3.08,2.67-3.65,4.89-1.46,3.01,2.98,5.66,6.31,8.65,9.3,2.01,2.01,4.36,3.68,6.55,5.5,1.81-2.55.09-5.46.85-8.15,1.28-4.59.25-9.64,2.73-14.01,1.41-2.48,2.78-4.01,4.7-.3,1.33,2.57,2.26.03,2.85-.61,1.64-1.79,2.07-5.4,5.96-2.29,1.42,1.13,2.22-1.64,2.72-2.83,1.14-2.75,2.39-4.53,5.9-4.34,2.32.12,4.5-1.42,6.34-3.06.59-.53.9-1.4,2.18-.76,1.29.65.61,1.31.62,2.11.02,2.88-1.06,6.05,3.13,7.49,2.02.7.09,2.44-.08,3.75-.29,2.36-3.57,5.81,2.07,6.58,1.53.21.12,1.51.01,2.38-.24,1.92-3.87,4.44.78,5.92.98.31.3,1.77-.4,2.7-3,3.93-5.92,7.91-9.03,12.1,5.1-.36,9.8-1.7,14.67-1.51,3.1.13,4.38,1.11,2.63,4.2-1.63,2.87-.74,4.24,2.56,4.08,1.84-.09,3.4-.12,2.59,2.66-.58,1.99,1.19,1.89,2.47,1.91,3.29.06,6.35-.88,8.61,3.51,1.59,3.1,6.4,3.38,10.14,3.82,1.2.14,2.52.14,2.32,1.78-.16,1.3-.99,2.14-2.53,1.9-3.12-.48-5.43,1.56-7.91,2.82-1.67.85-4.63,2.34-.1,3.62.77.22,1.08.74.82,1.29-.38.83-1.09,1.44-2.14,1.41-3.67-.09-6.51,1.77-9.35,3.89Z"/>
      <path class="cls-1" d="M107.97,178.75c-7.68.52-14.81-.39-21.66-3.02-1.43-.55-3.52-.82-3.67-2.9-.16-2.21,1.7-2.96,3.34-3.79,3.15-1.59,6.29-3.23,10.17-5.24-5.24-1.36-9.63-2.41-13.97-3.65-3.41-.98-6.09-3.06-7.81-6.2-1.07-1.95-2.06-4.11,1.37-4.77,1.29-.25.61-.77.58-1.46-.1-1.98-1.11-3.26-2.93-3.47-2.22-.26-2.82-.51-2.09-3.17,1.39-5.01-.44-8.05-5.31-10.74-1.33-.73-3.2-1.32-3.16-2.9.04-1.33,1.85-1.14,3.05-1.29,1.35-.16,1.21-1.28.9-2.08-.54-1.39-1.25-2.73-2-4.03-.79-1.37-3.28-2.3-2.16-4.08,1.27-2.03,3.26-.12,4.89.23,2.97.64,6.11,2.89,7.04-2.73.37-2.24,2.53-.74,3.27.51,1.12,1.88,2.32,3.32,4.51,4.11,2.77,1,4.8,1.42,4.83-2.51,0-1.05.66-1.79,1.56-2,1.04-.24,1.86.63,1.95,1.5.27,2.46,2.35,3.3,3.97,3.48.98.11,1.44-2.19,1.72-3.71.5-2.72,2.35-3.4,4.12-1.27,4.71,5.68,9.88,10.89,15.53,15.75,1.04-5.56,0-11.46,1.21-17.24.47-2.27,1.2-4.3,2.13-6.32.69-1.51,1.86-2.15,3.11-.54,2.01,2.6,3.59,1.57,4.81-.61,1.13-2.04,1.93-3.25,4.17-.93,1.2,1.24,1.99-.35,2.46-1.45,1.41-3.3,2.98-6.34,7.45-5.46.23.05.53-.26.81-.37,2.2-.87,3.94-3.8,6.29-2.93,2.73,1-.3,4.02.9,5.93.15.23,0,.81.14.87,5.34,2.01,2.52,5.59,1.86,8.88-.29,1.47-.68,3.59,2.16,3.38.8-.06,1.88.65,1.16,1.24-3.89,3.21,1.79,7.51-1.53,10.92-2.71,2.78-4.79,6.16-7.14,9.28-.08.1-.05.28-.13.84,5.03-.74,9.97-1.49,14.99-1.28,3.15.13,3.35,1.4,1.88,3.59-.76,1.13-2.04,2.05-1.03,3.57.93,1.41,2.13,1.37,3.56.56,1.31-.75,2.52.68,2.28,1.28-1.57,3.93,1.3,2.87,3.13,2.97,2.58.14,4.84-.58,6.54,3.11,1.66,3.62,6.74,3.19,10.44,4.19,1.12.3,2.68.04,2.54,1.69-.12,1.49-1.23,2.27-2.9,2.04-2.78-.37-4.83,1.39-7.05,2.59-1.63.88-5.32,1.6-.51,3.53.38.15.78,1.1.65,1.51-.35,1.11-1.3,1.68-2.48,1.5-3.54-.52-5.81,1.7-8.42,3.62.92.82,2.69.06,2.72,1.68.03,1.54-1.21,1.7-2.41,2.14-2.52.93-5.74,1.74-2.51,5.54,1.19,1.41-.28,2.13-1.39,2.63-6.06,2.75-12.41,3.45-18.95,2.43-2.92-.46-5.82-1.08-8.91-1.21,2.65,2.83,5.69,4.88,9.66,5.19,1.42.11,3.04.64,3.3,1.75.31,1.36-1.2,2.26-2.5,2.8-10.59,4.35-22.85,1.27-29.09-8.15-2.19,4.68-4.67,9-7.32,13.23-.85,1.35-1.91,2.25-2.97,1.55-1.28-.84.07-2.07.61-3,2.92-5.01,6.66-9.61,7.74-15.56.09-.52.66-1.31,1.05-1.34,1.04-.07,1.22.96,1.71,1.71,6.33,9.83,11.57,12.15,25.11,9.86-4.76-2.18-9.05-4.24-11.19-8.75-.53-1.12-1.98-2.36-.83-3.69,1.05-1.22,2.28.26,3.24.57,8.01,2.58,16.06,3.65,24.38,1.72,2.11-.49,2.1-1.62,2.44-3.52.81-4.51,3.41-8.32,6.92-11.3,1.72-1.46,3.66-2.11,4.4-4.96.66-2.54,3.67-4.25,6.4-5.29-4.21-3.48-8.34-6.45-14.06-7.27-5.97-.86-8.93-5.92-7.99-11.74-6.45.54-12.8,1.12-19.43,3.22,2.74-4.03,5.08-8.41,8.31-12,4.09-4.56,3.12-9.15,1.22-13.87-.68-1.69-1.06-3.6-.47-4.83,1.75-3.63-1.5-5.68-2.11-8.51-.14-.67-.81-1.56-1.62-1.05-2.64,1.65-6.41.17-8.4,4.29-2.47,5.12-8.8,4.91-13.43,6.79-2.21.9-2.77,1.42-3.01,3.41-.75,6.19-1.06,12.39-.91,18.61.03,1.3.48,3.12-1.22,3.48-1.34.29-2.25-.98-2.96-2.27-1.92-3.51-4.81-6.12-8.1-8.37-3.02-2.06-4.96-5.22-7.46-8.35-1.45,5.19-4.3,5.95-8.33,3.67-.5-.28-1.36-.71-1.62-.5-4.52,3.52-8.43,1.68-12.2-1.3-.61-.48-.99-.45-1.47.07-2.12,2.27-4.69,2.07-8.39.55,1.2,1.62,2.19,2.43,2.05,2.86-2.37,7.18,6.38,11.18,5.13,18.32-.33,1.9,3.76,3.75,4.59,6.62.42,1.44,1.53,3.13-.47,3.78-4.62,1.51-1.54,3.44-.15,4.52,3.87,2.99,8.68,3.78,13.33,4.73,3.17.65,6.42.93,10.28,1.46-3.23,4.66-8,6.32-12.26,8.49-1.39.71-3.33,1.17-3.27,2.58.07,1.6,2.2.98,3.43,1.38,6.02,1.97,12.06,3.38,18.43,1.78,1.69-.43,2.67.38,2.4,2.21-.85,5.81-3.27,11.16-4.92,16.74-.23.77-1.14,1.49-2.22.81-1.05-.66-.53-1.43-.25-2.31,1.49-4.73,2.89-9.49,4.41-14.53Z"/>
    </g>
  </g>
</svg>