<?xml version="1.0" encoding="UTF-8"?>
<svg id="Laag_2" xmlns="http://www.w3.org/2000/svg" viewBox="0 0 382.98 299.65">
  <defs>
    <style>
      .cls-1 {
        font-family: CourierNewPS-BoldMT, 'Courier New';
        font-size: 49.56px;
        font-weight: 700;
        letter-spacing: .08em;
      }

      .cls-1, .cls-2 {
        fill: #1a1a1a;
      }
    </style>
  </defs>
  <g id="Laag_1-2" data-name="Laag_1">
    <g>
      <g>
        <path class="cls-2" d="M154.49,168.42c.33.4.59.98.95,1.17,2.58,1.39,2.79,5.06,5.6,6.48.23.12.25,1.47-.01,1.64-2.74,1.73-4.32,4.85-7.73,6.53,1.02-4.41-.03-8.1-1.77-11.64-.96-1.94.09-3.14,1.42-4.23.49-.4.84-.44,1.13-.31-1.45-1.2-2.89-2.42-4.27-3.69-3.79,3.98-6.4,2.97-9.99-3.46-4.45-7.96-9.11-15.79-14.4-23.21-4.38-6.14-4.92-3.74-8.68.06-.64-1.8-1.26-3.49-1.84-5.19-1.36-4-3.33-5.26-7.52-4.98-2.13.15-4.29-.08-6.4.16-2.59.3-3.08-1.35-2.41-2.97,3.26-7.91,2.54-16.44,4.15-24.6.24-1.22.35-1.68,1.89-2.09,2.72-.71,5.16-6.38,4.68-9.38-.09-.58-.08-1.18-.09-1.77-.23-7.61-.58-7.98-8.16-8.57,1.42-3.72,3.99-5.17,8.58-4.81,7.12.55,8.65,3.08,7.06,10.09-1.1,4.84-1.2,10.03,2.26,14.1,2.2,2.6,2.1,5.27,1.52,7.99-1.65,7.82,5.69,13.22,12.44,11.25,7.02-2.04,17.98-4.36,18.06-11.44.06-4.91-16.5-10.45-21.31-9.05-1.61.47-3.05,2.19-4.85.8-2-1.54-2.92-3.81-3.5-6.2-.36-1.49-.15-2.83.29-4.41.79-2.84,1.5-5.92.05-8.97-.81-1.7-.3-2.68,1.81-3.62,4.24-1.88,7.15-5.4,8.51-9.93,1.11-3.71,3.5-7.14,2.6-11.34-.22-1.03.75-.55,1.17-.62,5.71-.88,11.05-6.59,10.52-12.78-.13-1.53-1.47-4.11-.01-4.63,6.98-2.48,9.21-7.22,8.11-8.11-5.57-4.46-25.06-1.44-31.11,3.91-4.83,4.28-4.91,15.75,2.98,19.77,2.52,1.28,4.05,5.82,3.04,8.46-1.38,3.59-2.9,7.02-5.79,9.77-1.88,1.79-4.86,1.77-6.56-.26-6.75-8.07-18.31-8.23-25.18,1.81-1.51,2.21-.52,5.08.64,8.2-1.75-1.73-3.41-.97-5.16-1.45,3.63-2.94,1.18-7.19,2.63-10.72,1.36-3.31,3.98-6.24,7.4-6.9,2.71-.53,5.44-1.15,8.04-2.07,7.69-2.71,9.15-9.47,10.29-16.36.12-.69.15-1.44.03-2.13-.81-4.53.95-7.43,5.18-9.31,2.27-1.01,2.74-3.82,3.24-5.97,1.53-6.59,8.92-23.78-11.8-18.5-8.54,2.18-16.13,5.56-14.73,14.16,1.03,6.36,5.08,9.65,10,12.08,2.01.99,2.8,2.34,2.92,3.78.49,6.18.51,12.42-4.77,16.98-2.36,2.04-5.65,1.31-8.39,2.35-.64.24-1.42.08-2.08.27-1.17.34-2.39,1.91-3.44.83-.93-.97-.51-2.75-.23-4.11,1.39-6.75-1.63-12.21-4.82-17.74-2.36-4.09-7.18-5.47-9.63-9.47-2.66-4.34-5.1-8.45-3.62-13.95,1.03-3.84-3.87-9.31-8.32-9.93-6.14-.85-29.27.69-31.29,5.1-3.71,8.09,12.84,14.59,18.14,20.74,2.14,2.48,4.49,4.39,7.74,4.74,3.68.39,8.42-3.38,10.31-8.38,2.94,6.25,8.94,9.32,12.38,14.39,2.8,4.13,6.06,8.91,4.09,14.79-.39,1.17-.06,2.58-.06,3.79-.67.25-1.02.35-1.41-.16-4.34-5.68-10.86-6.96-17.24-7.9-8.77-1.28-17.53,6.9-18.51,16.03-.68,6.36-.84,12.47,1.32,18.65,1.41,4.03.1,6.55-2.5,7.54-1.94.74-3.23.28-4.55-1.23-1.14-1.3-2.6-2.32-3.92-3.46-1.65-1.43-2.31-2.73-1.88-5.35.86-5.33-4.02-15.27-11.48-15.31-4.48-.02-26,4.46-26.23,9.81-.28,6.61,12.98,13.53,22.08,16.82,4.82,1.74,8.36,1.66,11.56-2.55,1.08-1.42,2.54-1.91,3.85.12.63.97,1.64,1.71,2.48,2.54,3.63,3.62,7.11,4.38,11.66,2,3.37-1.77,4-3.84,3.7-9.44-.28-5.34-2.73-10.49-1.68-15.9.74-3.83.86-7.65,3.58-11.23,2.76-3.63,6.32-4.14,9.63-3.98,7.13.35,13.14,3.37,17.17,9.82,1.33,2.14-.3,4.05.54,6,.15.35-.93.35-1.46.26-5.32-.97-6.34-.39-7.73,4.47-.61,2.15-2.13,2.89-4.2,2.93-4.01.08-5.22,1.35-4.38,5.18.45,2.06.06,3.85-.35,5.79-.67,3.19-.17,5.48,3.55,5.23,2.34-.15,3.13,1.38,2.68,3.08-1.81,6.81-4.35,13.28-10.32,18.29-.28-1.27-.41-3-1.68-2.71-4.42,1-9.78-1.75-13.23,2.13-2.8,3.15-1.67,9.11-6.23,11.37-17.6,8.69,2.03,13.72,14.17,14.86,1.88.18,3.48-.91,4.73-2,4.9-4.28,8.96-9.88,6.66-16.21-1.81-4.98.81-6.82,2.91-9.72,1.62-2.23,2.8-4.72,4.04-7.28,1.06,7.47,3.04,14.76,2.63,22.33-.04.73.36,1.57-.66,2.16-1.63.94-2.76,2.07-3.46,3.38-.95,1.78-1.82,4.46-.73,6.31.58.98,1.37,1.24,4.88,2.48,7.46,2.63,7.5,2.72,8.55,2.85.63.08,3.72.45,7.62-.39,2.79-.6,4.75-1.54,6.62-2.46,1.86-.91,4.33-2.31,6.99-4.43,1.07,2.19,2.2,4.53,3.44,7.07-1.05.14-2.26-.05-2.94.46-1.1.83-2.58,1.24-.74,3.66,4.36,5.75,8.38,11.78,13.18,17.16,3.49,3.9,5.95,8.55,9.9,12.15,3.74,3.41,6.92,7.46,10.9,10.64,3.48,2.78,7.74,2.17,11.67,1.6,3.48-.5,6.4-1.97,9.13-4.96,1.61-1.76,3.15-3.56,4.62-5.4-3.1-3.79-6.99-6.91-10.84-10.09ZM126.74,103.49c1.56-1.05,3.52-.34,4.6-.93,4.32-2.35,12.06,2.35,12.84,4.14.79,1.82-8.19,2.84-9.9,4.11-2.22,1.65-4.49,1.51-6.91.55-1.95-.77-1.79-2.72-2.56-3.9.32-1.68.47-3,1.93-3.97ZM141.93,39.4v2.85c-.28,2.33-3.65,4.11-5.98,4.6-1.32.28-2.59.2-3.08.15-.22-.02-1.16-.11-2.34-.47-.66-.2-1.59-.49-2.64-1.17-.84-.54-1.42-1.11-1.58-1.3-3.37-4.17-.97-10.72,4.26-11.8.98-.2,11.17-3.62,15.87-2.15M110.24,25.83c-1.29,1.49-2.14.14-2.96-.21-3.25-1.36-3.7-4.48-4.97-7.37-1.59-3.61.57-5.25,2.45-6.59,2.24-1.59,5.14.72,8.02-.94,7.7-4.45,8.58.79,6.26,9.36-.71,2.61-.5,4.65-3.21,5.88-2.01.91-3.79,1.06-5.58-.12ZM61.69,25.98c-.92.65-1.58.6-2.56.16-3.75-1.67-7.05-6.49-6.94-10.71.53-1.77-10.22-6.96-9.38-8.97,1.2-2.89,15.12-1.26,17.89-1.06,2.92.21,5.42,1.68,6.04,5.34.8,4.78-.65,12.15-5.05,15.25ZM31.64,83.78c-2.95,4.47-3.83,4.71-9.56,2.58-.44-.16-.81-.56-1.25-.63-3.96-.65-3.62-4.28-4.78-6.91.66-.62-7.14-2.85-7.03-3.66.57-4.12,11.46-4.4,14.63-5.67,2.48-.98,5.75-1.79,6.65,2.5.04.19.33.33.49.51,3.23,3.46,3.52,7.24.86,11.27ZM61.89,129.03c-1.05,2.22-2.41,4.71-5.13,5.87-5.01,2.14-4.67-5.38-10.57-3.41-10.14,3.38,1.16-13.02,3.36-15.47,1.9-2.12,5.13-1,7.8-1.01.17-.03.34-.06.51-.08.74.34,1.73.89,2.75,1.78,0,0,.45.14.49.46.3,2.44,3.16,3.94,2.37,6.76.86,2.07-.9,3.65-1.59,5.11ZM74.71,86.51c-.24,2.1-1.24,1.97-2.69,2.08-1.93.15-1.86-.88-2.06-2.34-.28-2.01,1.67-3.82-.26-6.62,2.06.9,4.1-.8,4.64,1.28.45,1.72.6,3.63.38,5.59ZM100.86,67.85c2.85-1.35,5.63-.9,9.16,1.22-7.29.41-12.14,2.98-14.33,9.48-.37-6.13.82-8.64,5.17-10.7ZM81.44,72.27c1.36.17,2.1,2.18,1.86,2.57-1.12,1.77-2.98.64-4.94.8.89-1.59.75-3.67,3.08-3.37ZM78.53,85.65c0-5.25.85-5.93,5.57-4.65,4.61,1.26,9.27,1.87,14.04,1.86,5.95,0,6.2.28,6.03,5.9-.01.47,0,.95,0,1.42-.07,3.58-1.5,4.79-4.86,3.74-5.62-1.76-11.4-2.87-17.09-4.34-3.04-.79-4.47-1.25-3.7-3.95ZM80.88,93.58c4.87,1.37,9.75,2.63,14.71,3.64,1.69.34,3.22.94,2.48,3.89-1.52,6.03-2.3,12.26-3.05,18.45-.21,1.75-.22,3.74-1,5.09-1.11,1.93-3.28-.79-4.64.24-2.36,0-4.43-.1-6.48.03-1.67.1-2.33-.36-2.26-2.15.12-3.11.24-6.26-.7-9.28-1.64-5.28-1.44-10.86-2.76-16.2-.78-3.18.7-4.55,3.7-3.7ZM97.76,136.28c-2.84,1.78-5.44,2.52-7.12,2.85-3.37.67-6.52-.03-12.82-1.42-1.16-.26-2.69-.64-2.85-1.42-.24-1.2,2.48-2.65,2.85-2.85.79-.43,2.44-1.21,8.55-1.42,1.13-.04,2.65-.03,5.7,0,1.71.02,3.67.05,6.11.36,2.4.31,3.75.49,3.86,1.06.06.28-.1,1.1-4.27,2.85ZM118.36,152.7c-3.52-.24-6.05-1.76-6.33-4.67-.17-1.82,2.24-2.69,3.41-4.05.58-.68,1.49-1.09,2.26-1.6,2.22-1.45,4.67-4.16,5.34,1.34.08.64,1.34,2,2.36,2.77.53.4,1,.86.62,1.78-.89,2.14-5.02,4.61-7.65,4.44ZM119.05,156.95c4.49.5,6.97-1.73,8.82-4.84,2.04.97,2.65,3.06,3.96,4.53.19.22,1.19,1.26.12,1.66-2.09.79-3.28,2.86-5.33,3.61-4.47,1.65-5.24-2.34-7.57-4.96ZM130.1,170.52c-1.84-.05-2.74-1.09-3.28-2.62-.68-1.94,1.3-1,1.89-1.46,2.05-1.59,4.04-3.1,5-6.06,1.97,2.11,3.08,4.42,3.35,6.56.21,1.66-2.97,1.04-4.08,2.62-.48.68-1.73.99-2.88.96ZM139.88,177.65c-.16.94-1.04,3.33-3.18,1.47-1.38-1.2-2.78-2.38-4.31-3.69,2.76-1.69,5.14-2.88,6.98-4.86,1.76-1.9,3.22.11,4.21.85,1.49,1.12-.33,1.72-1.08,2.47-1.08,1.07-2.31,1.93-2.62,3.75ZM149.61,184.62c-2.08.27-4.24.44-6.1-.88-1.04-.74-.88-1.61-.44-2.77,1.14-3.03,3.13-5.32,5.62-7.49,1.12,2.98,2.23,5.74,1.78,8.81-.12.83.52,2.15-.85,2.33Z"/>
        <path class="cls-2" d="M382.94,81.24c-.23-5.35-9.5-11.87-13.98-11.84-7.46.04-12.35,9.98-11.48,15.31.43,2.62-.23,3.92-1.88,5.35-1.32,1.14-2.77,2.17-3.92,3.46-1.32,1.5-2.62,1.97-4.55,1.23-2.6-.99-3.9-3.51-2.5-7.54,2.16-6.18,2.01-12.29,1.32-18.65-.98-9.13-9.74-17.31-18.51-16.03-6.38.93-12.91,2.22-17.24,7.9-.39.51-.74.41-1.41.16,0-1.21.33-2.62-.06-3.79-1.97-5.88,1.29-10.66,4.09-14.79,3.44-5.07,9.45-8.14,12.38-14.39,1.89,4.99,6.63,8.76,10.31,8.38,3.25-.34,5.6-2.25,7.74-4.74,5.3-6.16,4.97-11.66,1.26-19.75-2.02-4.41-8.27-6.95-14.4-6.09-4.45.62-9.35,6.09-8.32,9.93,1.47,5.5-.97,9.61-3.62,13.95-2.45,4-7.27,5.38-9.63,9.47-3.19,5.53-6.2,10.99-4.82,17.74.28,1.37.7,3.15-.23,4.11-1.05,1.08-2.27-.48-3.44-.83-.67-.2-1.45-.03-2.08-.27-2.74-1.04-6.03-.31-8.39-2.35-5.28-4.57-5.26-10.8-4.77-16.98.11-1.43.91-2.79,2.92-3.78,4.92-2.43,8.97-5.72,10-12.08,1.4-8.6-6.18-16.33-14.73-14.16-6.62,1.68-13.33,11.91-11.8,18.5.5,2.15.97,4.96,3.24,5.97,4.23,1.89,5.99,4.78,5.18,9.31-.12.69-.09,1.44.03,2.13,1.14,6.89,2.61,13.65,10.29,16.36,2.6.92,5.33,1.54,8.04,2.07,3.42.67,6.04,3.59,7.4,6.9,1.45,3.53-1.01,7.78,2.63,10.72-1.75.48-3.41-.28-5.16,1.45,1.15-3.12,2.15-5.99.64-8.2-6.86-10.04-18.43-9.88-25.18-1.81-1.7,2.03-4.68,2.05-6.56.26-2.89-2.75-4.41-6.18-5.79-9.77-1.01-2.63.52-7.17,3.04-8.46,7.89-4.02,7.81-15.49,2.98-19.77-6.04-5.35-15.81-4.01-21.38.45-1.1.88-1.65,2.24-1.62,3.75.04,1.54.12,3.1-.01,4.63-.54,6.19,4.81,11.9,10.52,12.78.42.06,1.39-.41,1.17.62-.9,4.2,1.49,7.63,2.6,11.34,1.36,4.53,4.27,8.05,8.51,9.93,2.12.94,2.63,1.91,1.81,3.62-1.46,3.05-.74,6.13.05,8.97.44,1.58.66,2.92.29,4.41-.58,2.39-1.49,4.66-3.5,6.2-1.8,1.39-3.25-.33-4.85-.8-4.81-1.4-12.06,4.08-12,8.99.08,7.08,1.73,9.46,8.75,11.5,6.75,1.97,14.09-3.43,12.44-11.25-.57-2.72-.68-5.39,1.52-7.99,3.45-4.07,3.35-9.26,2.26-14.1-1.59-7-.06-9.54,7.06-10.09,4.59-.35,7.17,1.09,8.58,4.81-7.57.58-7.93.96-8.16,8.57-.02.59,0,1.19-.09,1.77-.48,3,1.95,8.67,4.68,9.38,1.54.4,1.65.86,1.89,2.09,1.61,8.16.89,16.69,4.15,24.6.67,1.62.18,3.26-2.41,2.97-2.11-.24-4.27-.01-6.4-.16-4.19-.29-6.16.97-7.52,4.98-.58,1.7-1.2,3.39-1.84,5.19-3.76-3.8-4.31-6.2-8.68-.06-5.29,7.42-9.96,15.25-14.4,23.21-3.83,6.85-6.54,7.54-10.76,2.61-6.21-7.26-9.4-16.25-12.54-25.01-2.78-7.75-5.86-15.41-8.28-23.3-1-3.26-3.4-3.66-6.11-1.43-1.67,1.38-3.37,2.7-5.2,3.88-1.22.79-1.87.97-2.21-.51-.54-2.37-1.83-4.44-2.26-6.93-.33-1.91.54-2.44,1.5-3,3.85-2.28,7.93-4.07,10.8-7.86,1.53-2.02,2.24-4.38,3.78-6.39,3-3.9,4.75-8.6,5.51-13.36.93-5.75.51-11.62-2.14-17.52,5.13.91,9.72,2.04,14.37,2.43,2.84.24,6.87.25,7.99-2.57,1.13-2.84-2.21-4.98-4.59-6.12-6.5-3.12-11.95-8.1-18.93-10.38-3.12-1.02-4.87-3.23-4.51-6.95.19-2.01-.38-4.18-.96-6.17-.71-2.42-2.25-3.97-5.14-3.68-1.88.19-3.82.22-5.69-.04-9.41-1.29-18.76-1.28-28.14.39-2.42.43-3.38,1.62-3.42,3.86-.03,2.26.19,4.53-.05,6.76-.52,4.92-.81,7.26-6.98,9.2-6.09,1.91-12.06,4.62-16.58,9.55-1.83,2-1.16,4.29,1.54,5.26,4.24,1.52,8.13-1.43,12.33-.97.86.09,1.93-.69,3-.27-.5.92-.49,1.98-1,2.96-3.33,6.49-3.82,13.52-2.38,20.44,1.16,5.6,3.73,10.57,8.46,14.57,3.22,2.73,6.1,5.58,10.26,6.77.48.14,1.26.92,1.18,1.12-1.17,2.88.17,6.12-1.32,8.94-.8,1.51-2.09,1.59-3.31.96-1.32-.67-2.3-3.18-4-1.08-1.16,1.44-2.89,1.6-4.21,2.83-3.07,2.87-4.83,6.64-7.7,9.6-4.32,4.45-7.13,10.05-10.54,15.19-3.26,4.91-5.85,10.26-9.14,15.15-.38.57-.73,1.15-1.06,1.73,3.84-.64,7.73.43,10.89,3.18,2.12,1.84,4.97,8.15,7.95,8.41,2.04-2.45,4.33-4.78,7.61-6.14-.43,4.93-.68,9.86-.24,14.39.7,7.11-1.47,13.69-1.61,20.53-.12,5.88-3.8,10.34-5.99,15.37-.99,2.27-.62,3.78,1.65,4.33.16.04.29.09.42.14,2.2-.03,4.4-.03,6.6.01,0-.37-.02-.74-.02-1.13,10.75,0,21.77,0,32.8,0,.6,0,.95.26,1.14.68,1.87-.1,3.74-.07,5.61.01.36-.34.97-.26,1.97.09,1.16.07,2.33.13,3.5.2.41-.2.78-.52,1.1-1.02,1.01-1.6.06-2.75-.95-3.97-.56-.68-.83-1.66-1.06-2.55-1.05-4.19-1.41-8.48-1.41-12.78,0-9.24-.79-18.48-.03-27.73.34-4.21.53-8.43.81-12.91.6.35.95.46,1.15.7.37.44.69.93.95,1.45,3.83,7.76,8.79,14.63,14.67,21.05,2.74,2.99,5.65,4.46,9.13,4.96,3.93.57,8.19,1.19,11.67-1.6,3.97-3.18,7.16-7.24,10.9-10.64,3.95-3.6,6.41-8.25,9.9-12.15,4.8-5.38,8.83-11.41,13.18-17.16,1.83-2.42.36-2.83-.74-3.66-.68-.52-1.89-.33-2.94-.46,1.24-2.54,2.37-4.88,3.44-7.07,2.66,2.12,5.13,3.52,6.99,4.43,1.88.92,3.83,1.86,6.62,2.46,3.91.84,6.99.47,7.62.39,1.05-.13,1.09-.22,8.55-2.85,3.51-1.24,4.3-1.5,4.88-2.48,1.09-1.85.23-4.53-.73-6.31-.7-1.31-1.83-2.44-3.46-3.38-1.02-.59-.62-1.42-.66-2.16-.4-7.57,1.57-14.86,2.63-22.33,1.24,2.56,2.42,5.05,4.04,7.28,2.1,2.89,4.71,4.74,2.91,9.72-2.3,6.33,1.76,11.92,6.66,16.21,1.25,1.09,2.86,2.17,4.73,2,7.38-.67,15-4.51,14.17-14.86-.4-5.07-3.43-8.22-6.23-11.37-3.45-3.88-8.81-1.14-13.23-2.13-1.27-.29-1.4,1.45-1.68,2.71-5.98-5-8.52-11.48-10.32-18.29-.45-1.69.34-3.23,2.68-3.08,3.72.24,4.22-2.05,3.55-5.23-.41-1.95-.8-3.73-.35-5.79.84-3.83-.38-5.1-4.38-5.18-2.07-.04-3.59-.79-4.2-2.93-1.38-4.86-2.41-5.44-7.73-4.47-.53.1-1.61.09-1.46-.26.84-1.95-.8-3.86.54-6,4.03-6.45,10.05-9.47,17.17-9.82,3.31-.16,6.87.35,9.63,3.98,2.72,3.58,2.83,7.4,3.58,11.23,1.05,5.41-1.4,10.56-1.68,15.9-.29,5.59.34,7.67,3.7,9.44,4.54,2.39,8.03,1.63,11.66-2,.84-.84,1.85-1.57,2.48-2.54,1.31-2.02,2.77-1.54,3.85-.12,3.2,4.21,6.74,4.3,11.56,2.55,9.1-3.29,10.11-8.17,9.83-14.79ZM328.46,15.9c.61-3.66,3.12-5.13,6.04-5.34,2.77-.2,5.48,1.21,6.67,4.09.83,2.01,1.3,4.18,1.83,5.94.11,4.23-3.19,9.04-6.94,10.71-.98.44-1.64.49-2.56-.16-4.4-3.1-5.85-10.47-5.05-15.25ZM279.38,31.12c-2.71-1.23-3.73-3.22-3.21-5.88.76-3.93,3.01-7.12,6.26-9.36,2.74-1.89,5.78-.65,8.02.94,1.88,1.34,4.04,2.98,2.45,6.59-1.27,2.9-1.72,6.01-4.97,7.37-.83.35-1.68,1.7-2.96.21-1.79,1.18-3.57,1.03-5.58.12ZM262.33,52.17c-.5.05-1.76.13-3.08-.15-2.33-.49-5.7-2.27-5.98-4.6v-5.7c.26-.36.72-.92,1.42-1.42.82-.59,1.57-.83,1.93-.94,4.7-1.46,7.02-2.12,8-1.92,5.23,1.08,7.63,7.63,4.26,11.8-.16.19-.74.76-1.58,1.3-1.04.67-1.98.97-2.64,1.17-1.18.36-2.11.45-2.34.47ZM267.82,116.54c-2.42.96-4.69,1.1-6.91-.55-1.71-1.27-2.61-3.06-1.82-4.89.77-1.78.44-5.71,4.76-3.36,1.08.59,3.04-.12,4.6.93,1.46.98,1.61,2.29,1.93,3.97-.77,1.18-.61,3.12-2.56,3.9ZM163.17,63.4c1.93-1.05,3.82-1.75,5.57-2.71,1.85-1.01,3.79-1.71,5.65-2.63,9.17-4.53,9.78-6.25,9.22-15.7-.15-2.51-.04-3.31,2.76-3.66,6.97-.87,13.87-.84,20.82-.05,2,.23,4.16.36,6.07-.13,3.07-.78,3.62.68,3.68,3.14.04,1.97.18,3.91.55,5.9.64,3.44,2.63,5.54,5.48,6.78,7.03,3.05,13.49,7.09,20.5,11.33-26.89-5.22-53.35-5.11-80.3-2.28ZM173.25,90.29c-.81-3.99-.11-8.04.35-12.09.49-4.29,2.84-7.47,4.94-10.87,1.29-2.09,3.88-1.86,5.42-1.43,4.75,1.34,9.33-.44,14.02-.06,5.78.47,11.62.05,17.44.15,1.96.04,5.5.22,5.6.82.48,2.71,3.46,4.02,3.59,6.35.29,5.16,2.24,10.4-.49,15.54-2.81,5.3-4.51,11.39-9.37,15.26-4.56,3.63-9.62,6.66-15.62,6.16-11.08.06-23.39-7.48-25.88-19.82ZM191.41,116.15c-.26-.88.11-2.55,2.18-1.77,2.87,1.08,5.97,1.14,8.87.41,1.54-.39,1.73.06,1.62,1.14-.24,2.33.69,4.52,1.64,6.34,1.77,3.4-.04,4.7-2.58,5.4-2.41.67-5,.65-7.51.93-1.17.17-2.19-.55-3.26-.63-2.17-.15-2.16-1.15-1.88-2.99.44-2.91,1.87-5.7.93-8.84ZM162.34,173.91c-1.77-3.38-3.1-6.94-6.74-8.75-1.01-.5-.45-1.27.08-2.03,1.62-2.34,3.11-4.77,4.66-7.17,6.07,5.35,7.14,13.72,2,17.95ZM170.23,165.84c-.21-5.06-3.45-8.62-5.94-12.52-.89-1.4-.11-6.04,1.16-7.01,1.16-.88,1.48.36,1.87.82,3.99,4.68,5.24,12.31,2.91,18.71ZM212.84,220.95c-1.13.87-3.41.27-5.18.29-2.25.02-4.5,0-7.42,0-3.77-.28-8.27-.37-12.68-.43-4.43-.07-8.95.59-13.48.62-2.11.02-2-.5-1.25-1.7,1.8-2.88,2.96-5.97,3.51-9.3.31-1.86,1.79-1.98,3.18-1.99,9.55-.09,19.11-.74,28.5,2.02,3.17.93,5.14,2.08,4.64,5.66-.23,1.69,1.35,3.93.18,4.83ZM178.55,194.86c-.3-.74.15-1.17,1.05-1.42,10.53-3,20.91-3.27,31.1,1.38.72.33,1,.55,1.29,1.32,1.16,3.02-.26,6.08.31,9.13.18.94-1.06.81-2.13.52-6.58-1.79-13.34-2.28-19.08-2.38-4.11.08-7.15-.07-10.18.69-2.59.65-3.73-.44-2.98-3.25.52-1.93,1.47-3.85.62-5.98ZM179.12,180.38c-1.1-3.52,1.3-4.41,3.7-4.59,2.68-.2,5.26-1.41,8.02-.9,6.44.79,13.05.62,19.17,3.52,1.26.6,2.21,1.09,1.87,2.41-.36,1.38-.09,2.62,0,3.96.3,4.56-.39,5.05-4.66,3.49-8.19-3-16.44-2.79-24.74-.65-3.32.85-4.21-.13-3.49-3.72.23-1.14.47-2.45.14-3.5ZM185.18,159.99c8.13-1.67,15.95.06,23.74,2.16,3.66.99,4.77,3.58,3.64,8.67-.22,1.01-.59,1.99-.89,2.98-9.75-3.58-19.48-5.06-29.57-2.5-1.83.46-3.3.12-2.94-2.41.26-1.84-.06-3.85.56-5.54.85-2.31,3.24-2.9,5.47-3.36ZM181.44,152.57c4.63-5.85,10.56-4.34,16.19-3.12,3.91.85,8.22.62,11.68,3.31.46.36,1.56-.11,2.83-.25,0,2.11.76,4.75-.19,5.75-1.19,1.24-3.35-.72-5.14-1.1-7.81-1.65-15.61-3.43-23.59-.91-1.14.36-2.49.52-3.09-.86-.59-1.35.53-1.82,1.32-2.82ZM213.94,146.8c-8.77,1.79-16.76-4.31-25.55-2.51-2.98.61-6.56.17-8.85,1.72-1.82,1.23-4.41,2.82-5.05,6.24-.59-4.06-3.49-6.22-4.83-9.34-.86-1.99-.26-3.14.58-3.98,2.97-2.98,6.27-5.61,8.78-9.04.81-1.1,1.85-1.89,3.26-.64,4.45,3.97,9.92,4.5,15.39,3.88,5.64-.64,11.16-2.13,16.09-5.16,1.71-1.05,3.23-2.4,4.94-3.46.84-.53,1.66-.95,1.9.91.25,2.01,1.22,3.95,2,5.87,2.16,5.3.53,11.38-4.19,14.79-1.27.92-2.45,3.95-4.48.72ZM219.28,157.86c-2.38-3.59-2.39-5.93.87-8.4,1.91-1.45,2.76-3.65,4.37-5.28,1.25-1.26,2.26-1.67,2.36.65.08,1.89,1.61,3.08,1.9,4.82-.03,1.96-4.98,8.23-7.07,8.84-.8.23-1.56.67-2.43-.64ZM224.17,166.05c-.81-1.23-2.44-2.98-.76-4.15,2.87-1.99,4.98-4.71,8.31-7.63-.18,1.18-.27,1.47-.26,1.74.08,1.75,2.29,2.78,1.35,5-1.16,2.74-3.56,4.18-5.56,6.02-1.25,1.15-2.43.02-3.09-.98ZM230.77,177.64c-1-1.99-2.67-3.87-2.64-5.72.02-1.75,3.13-1.69,4.28-3.32.9-1.26,2.67-1.7,3.32-3.23.69.77,1.54,1.45,2.03,2.34.42.75,2.29,1.99-.59,2.36-1.81.23-2.11,2.59-2.95,3.97-.94,1.54-2.08,2.55-3.45,3.6ZM243.67,177.79c-1.74,3.54-2.8,7.22-1.77,11.64-3.41-1.68-5-4.8-7.73-6.53-.27-.17-.25-1.52-.01-1.64,2.81-1.42,3.02-5.09,5.6-6.48.75-.41,1.03-2.42,2.5-1.21,1.33,1.09,2.37,2.29,1.42,4.23ZM251.68,188.91c-1.86,1.33-4.02,1.15-6.1.88-1.37-.18-.73-1.5-.85-2.33-.45-3.07.67-5.83,1.78-8.81,2.49,2.17,4.47,4.46,5.62,7.49.44,1.16.59,2.03-.44,2.77ZM258.49,184.29c-2.14,1.86-3.02-.54-3.18-1.47-.31-1.83-1.54-2.68-2.62-3.75-.75-.75-2.57-1.35-1.08-2.47.99-.74,2.45-2.75,4.21-.85,1.84,1.98,4.22,3.17,6.98,4.86-1.53,1.3-2.93,2.48-4.31,3.69ZM268.38,173.07c-.54,1.53-1.44,2.57-3.28,2.62-1.15.03-2.4-.28-2.88-.96-1.11-1.58-4.29-.96-4.08-2.62.27-2.14,1.38-4.45,3.35-6.56.96,2.96,2.95,4.48,5,6.06.59.46,2.57-.48,1.89,1.46ZM268.58,167.09c-2.05-.75-3.23-2.83-5.33-3.61-1.07-.4-.08-1.44.12-1.66,1.31-1.48,1.92-3.56,3.96-4.53,1.84,3.11,4.33,5.34,8.82,4.84-2.32,2.62-3.09,6.61-7.57,4.96ZM276.84,157.87c-2.64.18-6.76-2.3-7.65-4.44-.38-.92.09-1.37.62-1.78,1.02-.77,2.28-2.13,2.36-2.77.67-5.5,3.12-2.79,5.34-1.34.78.51,1.68.92,2.26,1.6,1.17,1.36,3.58,2.23,3.41,4.05-.28,2.91-2.81,4.44-6.33,4.67ZM334.08,122.32c.04-.32.49-.46.49-.46,1.02-.89,2.02-1.44,2.75-1.78.17.03.34.06.51.08,2.68.01,5.9-1.1,7.8,1.01,2.2,2.45,4.18,5.1,5.05,8.77,1.44,6.04-7.24,12.26-12.26,10.12-2.72-1.16-4.09-3.66-5.13-5.87-.69-1.46-2.45-3.04-1.59-5.11-.79-2.82,2.07-4.33,2.37-6.76ZM320.87,86.09c.54-2.08,2.58-.38,4.64-1.28-1.93,2.8.02,4.61-.26,6.62-.21,1.46-.13,2.49-2.06,2.34-1.46-.11-2.45.01-2.69-2.08-.22-1.96-.07-3.87.38-5.59ZM285.18,74.24c3.53-2.12,6.3-2.58,9.16-1.22,4.35,2.07,5.54,4.57,5.17,10.7-2.19-6.49-7.04-9.07-14.33-9.48ZM320.23,141.46c-.16.78-1.69,1.17-2.85,1.42-6.3,1.4-9.45,2.09-12.82,1.42-1.68-.33-4.28-1.07-7.12-2.85-4.18-1.75-4.33-2.57-4.27-2.85.12-.57,1.47-.75,3.86-1.06,2.44-.32,4.4-.35,6.11-.36,3.04-.03,4.57-.04,5.7,0,6.11.22,7.76.99,8.55,1.42.36.2,3.09,1.64,2.85,2.85ZM318.02,102.46c-1.32,5.35-1.11,10.92-2.76,16.2-.94,3.01-.82,6.17-.7,9.28.07,1.79-.59,2.25-2.26,2.15-2.06-.13-4.12-.03-6.48-.03-1.36-1.03-3.54,1.69-4.64-.24-.78-1.35-.78-3.34-1-5.09-.76-6.19-1.54-12.42-3.05-18.45-.74-2.95.79-3.55,2.48-3.89,4.96-1.01,9.84-2.27,14.71-3.64,3-.84,4.49.52,3.7,3.7ZM313.75,77.44c2.33-.3,2.19,1.78,3.08,3.37-1.96-.16-3.82.97-4.94-.8-.25-.39.5-2.39,1.86-2.57ZM311.1,86.18c4.72-1.29,5.58-.61,5.57,4.65.77,2.7-.66,3.16-3.7,3.95-5.68,1.47-11.47,2.58-17.09,4.34-3.35,1.05-4.79-.17-4.86-3.74,0-.47.01-.95,0-1.42-.17-5.63.09-5.91,6.03-5.9,4.77,0,9.44-.61,14.04-1.86ZM374.37,90.9c-.44.07-.81.47-1.25.63-5.73,2.14-6.61,1.9-9.56-2.58-2.66-4.04-2.38-7.82.86-11.27.16-.17.45-.31.49-.51.9-4.29,4.17-3.49,6.65-2.5,3.17,1.26,6.51,2.9,7.08,7.02.11.81-.14,1.68.52,2.31-1.16,2.63-.82,6.26-4.78,6.91Z"/>
        <path class="cls-2" d="M198.53,102.24c-7.66-.06-12.61-3.3-14.72-9.86-.35-1.07-.28-2.08-.34-3.13-.05-.94.43-1.6,1.31-1.86.92-.27,1.63.17,2.08.97.34.61.6,1.26.84,1.91,2.17,5.89,9.03,8.88,14.58,6.11,3.46-1.73,7.17-3.3,8.41-7.69.29-1.01,1.71-1.94,2.82-2.43,1.65-.73,2.05.56,1.94,1.86-.35,4.27-3.19,7.39-6.19,9.58-2.87,2.09-6.21,4.18-10.72,4.54Z"/>
        <path class="cls-2" d="M188.74,83.07c-2.69,1.12-3.27-1.21-3.75-2.96-.57-2.11,2.32-5.46,4.6-5.57,2.44-.12,3.99,1.32,4.45,3.56.57,2.73-1.61,4.7-5.31,4.98Z"/>
        <path class="cls-2" d="M207.22,75.21c2.82-.03,4.92,1.85,4.68,4.42-.21,2.32-1.66,3.46-4,3.42-2.52-.05-4.94-.92-5.07-3.59-.12-2.41,1.29-4.52,4.38-4.25Z"/>
      </g>
      <text class="cls-1" transform="translate(4.36 264.44)"><tspan x="0" y="0">AMSTERGREEN</tspan></text>
    </g>
  </g>
</svg>