<?xml version="1.0" encoding="UTF-8"?>
<svg id="Laag_2" xmlns="http://www.w3.org/2000/svg" viewBox="0 0 152.69 269.01">
  <g id="Laag_1-2" data-name="Laag_1">
    <g>
      <path d="M79.65,225.08c2.83,25.26-22.47,45.61-40.81,43.82-17.55-1.71-29.3-10.23-36.25-26.38-5.74-13.34-1.81-24.51,10.59-33.15,20.44-14.23,28.16-33.55,23.54-58-.48-2.51-.53-5.17.8-7.9,1.03-2.12,2.79-3.39,4.24-3.29,1.62.1,3.97.89,4.78,2.96,3.15,8.01,6.62,15.93,9.18,24.12,2.05,6.58,5.26,12.5,9.36,17.73,9.31,11.85,15.3,24.68,14.57,40.08ZM46.31,167.2c-.23,8.51-1.83,16.52-5.63,23.91-5.33,10.36-13.88,17.79-23.31,24.23-4.58,3.13-7.48,7.14-9.21,12.49-2.38,7.37,2.09,11.98,5.31,17.6,12.32,21.45,39.14,20.45,53.28,1.78,7.83-10.33,6.43-21.98,4.65-32.96-2.92-18.11-17.79-30.56-25.09-47.06Z"/>
      <path d="M82.63,149.17c-.59-7.35,1.09-14.94,5.38-21.7,14.09-22.25,22.86-46.35,25.86-72.54.37-3.2,1.09-6.93,4.75-7.34,3.34-.37,3.73,5.13,8.11,5.38,1.52.08-.9,4.37-1.86,6.81-4.78,12.21-5.75,24.69.35,36.76,3.69,7.28,8.66,13.74,13.86,20.13,10.7,13.15,16.87,28.01,11.83,45.3-2.36,8.11-6.94,14.84-15.48,18.09-3.6,1.37-7.11,3.11-10.62,4.72-11.5,5.27-29.68.47-35.76-9.92-4.26-7.28-6.43-15.72-6.43-25.69ZM114.83,92.04c-3.28,6.58-6.66,13.36-10.05,20.13-6.86,13.69-17.92,25.5-15,43.1,2.1,12.72,8.74,22.11,22.18,25.73,4.87,1.31,24.04-7.46,27.48-12.57,7.69-11.43,7.62-26.69-.16-38.38-8.41-12.64-19.61-23.48-24.46-38.01Z"/>
      <path d="M8.22,89.1c-.04-14.97,5.8-28.51,11.52-41.74,5.06-11.69,9.87-23.69,17.99-34,3.24-4.11,8.29-6.66,10.06-12.07.64-1.94,2.45-1.33,4.32-.56,3.02,1.25,2.77,3.64,1.97,5.45-7.11,16.1.15,28.66,9.62,40.79,10.09,12.92,17.81,27.58,13.47,43.87-3.29,12.35-12.3,23.07-25.3,27.42-17.07,5.7-35.12-2.96-42.03-18.37-1.62-3.6-1.46-7.13-1.63-10.79ZM43.54,20c-1.25,1.34-2.7,2.38-3.44,3.79-10.05,19.05-19.64,38.27-22.85,59.94-2.1,14.17,10.53,29.75,23.55,28.94,11.92-.74,24.39-10.49,28.37-22.64,4.81-14.7-1.83-26.47-10.36-37.5-7.47-9.66-14.06-19.66-15.26-32.53Z"/>
      <path d="M40.93,252.61c-10.61-.08-20.61-7.42-23.17-16.51-.62-2.19-.77-3.98,1.2-5.12,2.84-1.64,4.55,1.24,5,2.71,2.75,9.04,10.67,10.41,17.96,12.72,2.37.75,6.49-.38,6.07,3.44-.44,4.02-4.59,2.39-7.06,2.76Z"/>
      <path d="M96,147.62c.04-2.39-.57-5.5,2.95-5.55,2.43-.03,2.63,2.56,3.03,4.61,1.07,5.46,2.3,10.67,7.96,13.73,2.56,1.38,5.61,4.08,2.28,7.57-3.43,3.6-4.91.06-7.17-2.07-5.35-5.05-9.13-10.66-9.06-18.29Z"/>
      <path d="M44.02,104.03c-6.5-1.35-13.26-1.84-17.36-8.04-1.67-2.52-2.93-5.17.62-7.42,4.84-3.08,3,2.15,3.95,3.4,3.45,4.53,11.16,6.16,16.38,2.95,1.85-1.14,3.62-2.43,5.36-3.74,2.15-1.64,2.98.48,4.28,1.37,1.79,1.23.98,2.91.04,3.7-3.95,3.34-7.65,7.27-13.27,7.79Z"/>
    </g>
  </g>
</svg>